<?xml version="1.0" encoding="UTF-8" standalone="no"?>
<svg
   id="_Ñëîé_1"
   data-name="Ñëîé 1"
   viewBox="0 0 96.000002 95.999998"
   version="1.1"
   sodipodi:docname="Margana logo square clear 96 px x 96 px.svg"
   inkscape:version="1.4.3 (0d15f75, 2025-12-25)"
   width="96"
   height="96"
   xmlns:inkscape="http://www.inkscape.org/namespaces/inkscape"
   xmlns:sodipodi="http://sodipodi.sourceforge.net/DTD/sodipodi-0.dtd"
   xmlns:xlink="http://www.w3.org/1999/xlink"
   xmlns="http://www.w3.org/2000/svg"
   xmlns:svg="http://www.w3.org/2000/svg">
  <sodipodi:namedview
     id="namedview58"
     pagecolor="#ffffff"
     bordercolor="#cccccc"
     borderopacity="1"
     inkscape:showpageshadow="0"
     inkscape:pageopacity="1"
     inkscape:pagecheckerboard="0"
     inkscape:deskcolor="#d1d1d1"
     inkscape:zoom="10.295475"
     inkscape:cx="60.220634"
     inkscape:cy="57.355297"
     inkscape:window-width="3440"
     inkscape:window-height="1369"
     inkscape:window-x="-8"
     inkscape:window-y="-8"
     inkscape:window-maximized="1"
     inkscape:current-layer="_Ñëîé_1"
     showgrid="false" />
  <defs
     id="defs22">
    <style
       id="style1">
      .cls-1 {
        fill: url(#linear-gradient-15);
      }

      .cls-2 {
        fill: url(#linear-gradient-13);
      }

      .cls-3 {
        fill: url(#linear-gradient-28);
      }

      .cls-4 {
        fill: url(#linear-gradient-2);
      }

      .cls-5 {
        fill: url(#linear-gradient-25);
      }

      .cls-6 {
        fill: url(#linear-gradient-10);
      }

      .cls-7 {
        fill: url(#linear-gradient-12);
      }

      .cls-8 {
        fill: url(#linear-gradient-27);
      }

      .cls-9 {
        fill: #fff;
      }

      .cls-10 {
        fill: url(#linear-gradient-26);
      }

      .cls-11 {
        fill: url(#linear-gradient-4);
      }

      .cls-12 {
        fill: url(#linear-gradient-35);
      }

      .cls-13 {
        fill: url(#linear-gradient-30);
      }

      .cls-14 {
        fill: url(#linear-gradient-3);
      }

      .cls-15 {
        fill: url(#linear-gradient-34);
      }

      .cls-16 {
        fill: url(#linear-gradient-5);
      }

      .cls-17 {
        fill: url(#linear-gradient-22);
      }

      .cls-18 {
        fill: url(#linear-gradient-24);
      }

      .cls-19 {
        fill: url(#linear-gradient-33);
      }

      .cls-20 {
        fill: url(#linear-gradient-8);
      }

      .cls-21 {
        fill: url(#linear-gradient-14);
      }

      .cls-22 {
        fill: url(#linear-gradient-29);
      }

      .cls-23 {
        fill: url(#linear-gradient-20);
      }

      .cls-24 {
        fill: url(#linear-gradient-17);
      }

      .cls-25 {
        fill: url(#linear-gradient-7);
      }

      .cls-26 {
        fill: url(#linear-gradient-9);
      }

      .cls-27 {
        fill: url(#linear-gradient-11);
      }

      .cls-28 {
        fill: url(#linear-gradient-19);
      }

      .cls-29 {
        fill: url(#linear-gradient-6);
      }

      .cls-30 {
        fill: url(#linear-gradient-36);
      }

      .cls-31 {
        fill: url(#linear-gradient-21);
      }

      .cls-32 {
        fill: url(#linear-gradient-32);
      }

      .cls-33 {
        fill: url(#linear-gradient-16);
      }

      .cls-34 {
        fill: url(#linear-gradient);
      }

      .cls-35 {
        fill: url(#linear-gradient-23);
      }

      .cls-36 {
        fill: url(#linear-gradient-31);
      }

      .cls-37 {
        fill: url(#linear-gradient-18);
      }
    </style>
    <linearGradient
       id="linear-gradient"
       x1="75.980003"
       y1="-70.610001"
       x2="613.83002"
       y2="467.23999"
       gradientUnits="userSpaceOnUse"
       gradientTransform="matrix(0.14010171,2.3897342e-4,-4.1502931e-4,0.24463782,-0.25662831,-0.2792953)">
      <stop
         offset="0"
         stop-color="#111827"
         id="stop1" />
      <stop
         offset=".5"
         stop-color="#581c87"
         id="stop2" />
      <stop
         offset="1"
         stop-color="#312e81"
         id="stop3" />
    </linearGradient>
    <linearGradient
       id="linear-gradient-2"
       x1="5375.2798"
       y1="8640.9902"
       x2="5281.9199"
       y2="8581.1904"
       gradientTransform="rotate(-77.64,-2330.9972,7481.5382)"
       gradientUnits="userSpaceOnUse">
      <stop
         offset="0"
         stop-color="#db2777"
         id="stop4" />
      <stop
         offset=".51"
         stop-color="#fe5134"
         id="stop5" />
      <stop
         offset="1"
         stop-color="#fda547"
         id="stop6" />
    </linearGradient>
    <linearGradient
       id="linear-gradient-3"
       x1="5372.27"
       y1="8645.6699"
       x2="5278.9102"
       y2="8585.8701"
       xlink:href="#linear-gradient-2" />
    <linearGradient
       id="linear-gradient-4"
       x1="5372.8599"
       y1="8644.7402"
       x2="5279.5"
       y2="8584.9404"
       xlink:href="#linear-gradient-2" />
    <linearGradient
       id="linear-gradient-5"
       x1="7803.2202"
       y1="-5252.3501"
       x2="7880.0498"
       y2="-5362.6499"
       gradientTransform="rotate(55.14,-1186.9364,-9630.7037)"
       gradientUnits="userSpaceOnUse">
      <stop
         offset=".27"
         stop-color="#db2777"
         id="stop7" />
      <stop
         offset=".75"
         stop-color="#fe5134"
         id="stop8" />
    </linearGradient>
    <linearGradient
       id="linear-gradient-6"
       x1="8860.2197"
       y1="-4466.7402"
       x2="8888"
       y2="-4494.1099"
       gradientTransform="rotate(44.57,-1162.1961,-12456.316)"
       xlink:href="#linear-gradient-5" />
    <linearGradient
       id="linear-gradient-7"
       x1="-1475.87"
       y1="7709.52"
       x2="-1303.54"
       y2="7730.6201"
       gradientTransform="rotate(-126.98,-2341.0109,3480.5932)"
       gradientUnits="userSpaceOnUse">
      <stop
         offset="0"
         stop-color="#18949c"
         id="stop9" />
      <stop
         offset=".53"
         stop-color="#2c8f78"
         id="stop10" />
      <stop
         offset="1"
         stop-color="#408b57"
         id="stop11" />
    </linearGradient>
    <linearGradient
       id="linear-gradient-8"
       x1="11145.29"
       y1="136.10001"
       x2="11344.69"
       y2="136.10001"
       gradientTransform="translate(-10786.36)"
       gradientUnits="userSpaceOnUse">
      <stop
         offset="0"
         stop-color="#408b57"
         id="stop12" />
      <stop
         offset="1"
         stop-color="#064e3b"
         id="stop13" />
    </linearGradient>
    <linearGradient
       id="linear-gradient-9"
       x1="11161.9"
       y1="196.47"
       x2="11339.99"
       y2="196.47"
       xlink:href="#linear-gradient-8" />
    <linearGradient
       id="linear-gradient-10"
       x1="11184.79"
       y1="219.03999"
       x2="11300.27"
       y2="219.03999"
       xlink:href="#linear-gradient-8" />
    <linearGradient
       id="linear-gradient-11"
       x1="7103.71"
       y1="-205.42"
       x2="7102.8599"
       y2="-200.03"
       gradientTransform="matrix(-0.99718513,0.07497873,0.07497873,0.99718513,7508.73,-269.65)"
       gradientUnits="userSpaceOnUse">
      <stop
         offset="0"
         stop-color="#fe4d33"
         id="stop14" />
      <stop
         offset="1"
         stop-color="#fda547"
         id="stop15" />
    </linearGradient>
    <linearGradient
       id="linear-gradient-12"
       x1="6939.25"
       y1="-621.32001"
       x2="6938.98"
       y2="-613.51001"
       gradientTransform="matrix(-0.98051193,0.19645957,0.19645957,0.98051193,7326.24,-689.72)"
       xlink:href="#linear-gradient-11" />
    <linearGradient
       id="linear-gradient-13"
       x1="6755.6499"
       y1="-958.70001"
       x2="6756.27"
       y2="-949.91998"
       gradientTransform="matrix(-0.95450093,0.29820795,0.29820795,0.95450093,7129.16,-1030.75)"
       xlink:href="#linear-gradient-11" />
    <linearGradient
       id="linear-gradient-14"
       x1="6764.02"
       y1="-956.31"
       x2="6764.8599"
       y2="-944.39001"
       gradientTransform="matrix(-0.95450093,0.29820795,0.29820795,0.95450093,7129.16,-1030.75)"
       xlink:href="#linear-gradient-11" />
    <linearGradient
       id="linear-gradient-15"
       x1="6770.4902"
       y1="-952.28998"
       x2="6771.2598"
       y2="-941.33002"
       gradientTransform="matrix(-0.95450093,0.29820795,0.29820795,0.95450093,7129.16,-1030.75)"
       xlink:href="#linear-gradient-11" />
    <linearGradient
       id="linear-gradient-16"
       x1="6777.3398"
       y1="-947.97998"
       x2="6777.9302"
       y2="-939.57001"
       gradientTransform="matrix(-0.95450093,0.29820795,0.29820795,0.95450093,7129.16,-1030.75)"
       xlink:href="#linear-gradient-11" />
    <linearGradient
       id="linear-gradient-17"
       x1="6782.4702"
       y1="-944.40002"
       x2="6783.1099"
       y2="-935.31"
       gradientTransform="matrix(-0.95450093,0.29820795,0.29820795,0.95450093,7129.16,-1030.75)"
       xlink:href="#linear-gradient-11" />
    <linearGradient
       id="linear-gradient-18"
       x1="6581.4302"
       y1="-1315.0601"
       x2="6564.1001"
       y2="-1285.05"
       gradientTransform="matrix(-0.91347445,0.40689608,0.40689608,0.91347445,6928.18,-1407.29)"
       gradientUnits="userSpaceOnUse">
      <stop
         offset="0"
         stop-color="#581f28"
         id="stop16" />
      <stop
         offset="0"
         stop-color="#5a1f2a"
         id="stop17" />
      <stop
         offset=".82"
         stop-color="#b74f17"
         id="stop18" />
      <stop
         offset=".95"
         stop-color="#c75815"
         id="stop19" />
    </linearGradient>
    <linearGradient
       id="linear-gradient-19"
       x1="155.85001"
       y1="317.35999"
       x2="154.99001"
       y2="322.75"
       gradientTransform="rotate(4.3,3665.5818,1844.0147)"
       xlink:href="#linear-gradient-11" />
    <linearGradient
       id="linear-gradient-20"
       x1="107.42"
       y1="746.96002"
       x2="107.15"
       y2="754.77002"
       gradientTransform="rotate(11.33,3642.074,1323.9009)"
       xlink:href="#linear-gradient-11" />
    <linearGradient
       id="linear-gradient-21"
       x1="105.15"
       y1="1119.02"
       x2="105.76"
       y2="1127.8"
       gradientTransform="rotate(17.35,3641.9273,1215.4461)"
       xlink:href="#linear-gradient-11" />
    <linearGradient
       id="linear-gradient-22"
       x1="113.52"
       y1="1121.41"
       x2="114.36"
       y2="1133.33"
       gradientTransform="rotate(17.35,3641.9273,1215.4461)"
       xlink:href="#linear-gradient-11" />
    <linearGradient
       id="linear-gradient-23"
       x1="119.99"
       y1="1125.4301"
       x2="120.76"
       y2="1136.39"
       gradientTransform="rotate(17.35,3641.9273,1215.4461)"
       xlink:href="#linear-gradient-11" />
    <linearGradient
       id="linear-gradient-24"
       x1="126.84"
       y1="1129.74"
       x2="127.43"
       y2="1138.15"
       gradientTransform="rotate(17.35,3641.9273,1215.4461)"
       xlink:href="#linear-gradient-11" />
    <linearGradient
       id="linear-gradient-25"
       x1="131.97"
       y1="1133.3199"
       x2="132.61"
       y2="1142.41"
       gradientTransform="rotate(17.35,3641.9273,1215.4461)"
       xlink:href="#linear-gradient-11" />
    <linearGradient
       id="linear-gradient-26"
       x1="216.56"
       y1="1519.46"
       x2="199.23"
       y2="1549.47"
       gradientTransform="rotate(24.01,3673.5345,1010.7628)"
       xlink:href="#linear-gradient-18" />
    <linearGradient
       id="linear-gradient-27"
       x1="4606.9102"
       y1="5134.4502"
       x2="4513.5498"
       y2="5074.6499"
       gradientTransform="matrix(-0.21405343,-0.97682195,-0.97682195,0.21405343,6240.24,3603.12)"
       xlink:href="#linear-gradient-2" />
    <linearGradient
       id="linear-gradient-28"
       x1="4603.8999"
       y1="5139.1299"
       x2="4510.54"
       y2="5079.3301"
       gradientTransform="matrix(-0.21405343,-0.97682195,-0.97682195,0.21405343,6240.24,3603.12)"
       xlink:href="#linear-gradient-2" />
    <linearGradient
       id="linear-gradient-29"
       x1="4604.4902"
       y1="5138.2002"
       x2="4511.1299"
       y2="5078.3999"
       gradientTransform="matrix(-0.21405343,-0.97682195,-0.97682195,0.21405343,6240.24,3603.12)"
       xlink:href="#linear-gradient-2" />
    <linearGradient
       id="linear-gradient-30"
       x1="5751.3599"
       y1="-2306.8301"
       x2="5828.1899"
       y2="-2417.1299"
       gradientTransform="matrix(-0.57157316,0.82055111,0.82055111,0.57157316,5511.07,-3152.11)"
       xlink:href="#linear-gradient-5" />
    <linearGradient
       id="linear-gradient-31"
       x1="6302.9199"
       y1="-1947.53"
       x2="6330.6899"
       y2="-1974.89"
       gradientTransform="matrix(-0.71239359,0.70178014,0.70178014,0.71239359,6175.92,-2766.91)"
       xlink:href="#linear-gradient-5" />
    <linearGradient
       id="linear-gradient-32"
       x1="683.46002"
       y1="4841.8599"
       x2="855.79999"
       y2="4862.96"
       gradientTransform="matrix(0.60153621,-0.79884553,-0.79884553,-0.60153621,3629.74,3704.19)"
       xlink:href="#linear-gradient-7" />
    <linearGradient
       id="linear-gradient-33"
       x1="7555.5498"
       y1="136.10001"
       x2="7754.9502"
       y2="136.10001"
       gradientTransform="matrix(-1,0,0,1,7886.43,0)"
       xlink:href="#linear-gradient-8" />
    <linearGradient
       id="linear-gradient-34"
       x1="7572.1602"
       y1="196.47"
       x2="7750.25"
       y2="196.47"
       gradientTransform="matrix(-1,0,0,1,7886.43,0)"
       xlink:href="#linear-gradient-8" />
    <linearGradient
       id="linear-gradient-35"
       x1="7595.0601"
       y1="219.03999"
       x2="7710.54"
       y2="219.03999"
       gradientTransform="matrix(-1,0,0,1,7886.43,0)"
       xlink:href="#linear-gradient-8" />
    <linearGradient
       id="linear-gradient-36"
       x1="344.89999"
       y1="106.05"
       x2="344.89999"
       y2="347.94"
       gradientUnits="userSpaceOnUse">
      <stop
         offset=".33"
         stop-color="#5a1f2a"
         id="stop20" />
      <stop
         offset=".61"
         stop-color="#93371e"
         id="stop21" />
      <stop
         offset="1"
         stop-color="#c75815"
         id="stop22" />
    </linearGradient>
    <linearGradient
       inkscape:collect="always"
       xlink:href="#linear-gradient-2"
       id="linearGradient58"
       gradientUnits="userSpaceOnUse"
       gradientTransform="rotate(-77.64,-2330.9972,7481.5382)"
       x1="5375.2798"
       y1="8640.9902"
       x2="5281.9199"
       y2="8581.1904" />
    <linearGradient
       inkscape:collect="always"
       xlink:href="#linear-gradient-5"
       id="linearGradient59"
       gradientUnits="userSpaceOnUse"
       gradientTransform="rotate(55.14,-1186.9364,-9630.7037)"
       x1="7803.2202"
       y1="-5252.3501"
       x2="7880.0498"
       y2="-5362.6499" />
    <linearGradient
       inkscape:collect="always"
       xlink:href="#linear-gradient-7"
       id="linearGradient60"
       gradientUnits="userSpaceOnUse"
       gradientTransform="rotate(-126.98,-2341.0109,3480.5932)"
       x1="-1475.87"
       y1="7709.52"
       x2="-1303.54"
       y2="7730.6201" />
    <linearGradient
       inkscape:collect="always"
       xlink:href="#linear-gradient-8"
       id="linearGradient61"
       gradientUnits="userSpaceOnUse"
       gradientTransform="translate(-10786.36)"
       x1="11145.29"
       y1="136.10001"
       x2="11344.69"
       y2="136.10001" />
    <linearGradient
       inkscape:collect="always"
       xlink:href="#linear-gradient-11"
       id="linearGradient62"
       gradientUnits="userSpaceOnUse"
       gradientTransform="matrix(-0.99718513,0.07497873,0.07497873,0.99718513,7508.73,-269.65)"
       x1="7103.71"
       y1="-205.42"
       x2="7102.8599"
       y2="-200.03" />
    <linearGradient
       inkscape:collect="always"
       xlink:href="#linear-gradient-18"
       id="linearGradient63"
       gradientUnits="userSpaceOnUse"
       gradientTransform="matrix(-0.91347445,0.40689608,0.40689608,0.91347445,6928.18,-1407.29)"
       x1="6581.4302"
       y1="-1315.0601"
       x2="6564.1001"
       y2="-1285.05" />
  </defs>
  <g
     id="g58"
     transform="matrix(0.16378026,0,0,0.16378026,-8.3770655,15.630653)">
    <g
       id="g57">
      <g
         id="g31">
        <path
           class="cls-4"
           d="m 412.64,313.76 c 6.77,0.87 13.43,-1.8 19.69,-4.5 10.98,-4.75 21.88,-9.83 31.77,-16.56 9.88,-6.74 18.77,-15.23 24.61,-25.67 2.85,-5.1 5,-10.89 4.31,-16.69 -0.67,-5.61 -3.95,-10.65 -8.09,-14.49 -4.14,-3.84 -9.13,-6.64 -14.08,-9.36 -4.83,-2.65 -9.68,-5.28 -14.56,-7.83 -10.13,-5.31 -20.4,-10.34 -30.91,-14.84 -4.69,-2.01 -9.45,-3.93 -13.88,-6.46 -4.04,-2.31 -7.78,-5.11 -11.51,-7.9 -5.1,-3.82 -9.62,-7.78 -14.13,-12.23 -3.46,-3.42 -10.24,-6.9 -14.05,-1.89 -0.14,0.18 -0.27,0.37 -0.38,0.56 -1.08,1.8 -1.21,4.07 -1.27,6.2 -1,35.18 4.79,70.55 16.98,103.57 2.31,6.25 4.89,12.51 8.99,17.77 4.1,5.26 9.92,9.47 16.53,10.31 z"
           id="path22"
           style="fill:url(#linearGradient58)" />
        <path
           class="cls-14"
           d="m 429.72,230.77 c -18.99,-13.98 -39.29,-26.31 -59.67,-37.96 0.01,1.37 0.04,2.74 0.07,4.11 19.68,11.29 39.24,23.24 57.53,36.7 2.59,1.91 5.13,3.83 7.61,5.75 -1.29,21.76 1.57,43.96 8.14,64.89 1.07,-0.51 2.13,-1.02 3.19,-1.55 -6.09,-19.59 -8.87,-40.31 -7.96,-60.7 15.57,12.37 28.81,25.11 40.06,38.38 0.82,-0.86 1.63,-1.73 2.41,-2.63 -13.94,-16.38 -30.9,-31.93 -51.37,-47 z"
           id="path23"
           style="fill:url(#linear-gradient-3)" />
        <path
           class="cls-11"
           d="m 372.34,225.13 c 0.21,1.67 0.4,3.34 0.64,5.01 9.73,9.08 17.77,21.12 23.11,35.17 5.76,15.15 8.13,31.25 9.09,45.98 1.1,0.59 2.24,1.09 3.41,1.49 -0.9,-15.45 -3.28,-32.54 -9.41,-48.67 -6.04,-15.89 -15.44,-29.31 -26.85,-38.98 z"
           id="path24"
           style="fill:url(#linear-gradient-4)" />
        <g
           id="g26">
          <path
             class="cls-16"
             d="m 429.72,230.77 c -18.99,-13.98 -39.29,-26.31 -59.67,-37.96 0.01,1.37 0.04,2.74 0.07,4.11 19.68,11.29 39.24,23.24 57.53,36.7 2.59,1.91 5.13,3.83 7.61,5.75 -1.29,21.76 1.57,43.96 8.14,64.89 1.07,-0.51 2.13,-1.02 3.19,-1.55 -6.09,-19.59 -8.87,-40.31 -7.96,-60.7 15.57,12.37 28.81,25.11 40.06,38.38 0.82,-0.86 1.63,-1.73 2.41,-2.63 -13.94,-16.38 -30.9,-31.93 -51.37,-47 z"
             id="path25"
             style="fill:url(#linearGradient59)" />
          <path
             class="cls-29"
             d="m 372.34,225.13 c 0.21,1.67 0.4,3.34 0.64,5.01 9.73,9.08 17.77,21.12 23.11,35.17 5.76,15.15 8.13,31.25 9.09,45.98 1.1,0.59 2.24,1.09 3.41,1.49 -0.9,-15.45 -3.28,-32.54 -9.41,-48.67 -6.04,-15.89 -15.44,-29.31 -26.85,-38.98 z"
             id="path26"
             style="fill:url(#linear-gradient-6)" />
        </g>
        <path
           class="cls-25"
           d="m 533.63,235.28 c 7.21,-6.5 10.51,-16.17 13.39,-25.43 5.05,-16.25 9.68,-32.73 11.57,-49.64 1.89,-16.91 0.96,-34.38 -4.88,-50.36 -2.86,-7.81 -7.12,-15.49 -14.02,-20.12 -6.68,-4.48 -15.16,-5.61 -23.14,-4.7 -7.99,0.91 -15.63,3.69 -23.15,6.52 -7.34,2.75 -14.67,5.56 -21.95,8.46 -15.12,6.02 -30.07,12.44 -44.68,19.6 -6.52,3.2 -13,6.56 -19.84,9 -6.24,2.22 -12.74,3.66 -19.21,5.1 -8.84,1.96 -17.32,3.17 -26.29,3.91 -6.9,0.57 -16.93,4.66 -15.07,13.42 0.07,0.32 0.15,0.63 0.26,0.93 0.94,2.84 3.27,5.08 5.51,7.12 37.05,33.7 80.59,60.23 127.53,77.7 8.89,3.31 18.04,6.32 27.51,6.77 9.47,0.45 19.42,-1.93 26.46,-8.28 z"
           id="path27"
           style="fill:url(#linearGradient60)" />
        <g
           id="g30">
          <path
             class="cls-20"
             d="m 473.16,122.66 c 28.24,-8.46 54.66,-13.18 79.93,-14.42 -0.56,-1.43 -1.16,-2.85 -1.83,-4.24 -29.97,1.64 -61.52,8.11 -95.71,19.74 -33.22,11.3 -65.37,26.21 -96.62,41.38 1.2,1.04 2.41,2.05 3.62,3.07 30.6,-14.82 62.03,-29.34 94.42,-40.36 3.75,-1.28 7.47,-2.48 11.15,-3.64 26.03,20.52 57.18,35.12 89.64,42.34 0.22,-1.42 0.39,-2.86 0.57,-4.29 -30.71,-6.89 -60.23,-20.52 -85.17,-39.6 z"
             id="path28"
             style="fill:url(#linearGradient61)" />
          <path
             class="cls-26"
             d="m 475.45,165.78 c -26.82,-3.55 -64.75,-3.75 -99.91,12.98 1.21,0.94 2.43,1.88 3.66,2.81 33.75,-15.43 69.97,-15.14 95.75,-11.73 1.42,0.19 2.84,0.42 4.26,0.63 l -0.27,0.21 c 17.59,21.9 37.7,41.45 59.93,58.41 0.75,-1.14 1.44,-2.32 2.08,-3.54 -20.71,-15.85 -39.55,-33.99 -56.18,-54.19 23.43,4.06 46.36,11.34 67.82,19.35 0.35,-1.33 0.7,-2.66 1.03,-4 -24.57,-9.17 -51.11,-17.36 -78.18,-20.94 z"
             id="path29"
             style="fill:url(#linear-gradient-9)" />
          <path
             class="cls-6"
             d="m 398.43,195.19 c 1.79,1.2 3.58,2.41 5.39,3.58 17.53,-1.23 36.5,2.38 54.72,10.72 18.96,8.68 35.6,21.49 49.55,34.12 1.94,0.05 3.88,0 5.82,-0.19 -14.79,-13.75 -32.83,-28.09 -53.69,-37.64 -20.61,-9.44 -42.2,-13.01 -61.79,-10.59 z"
             id="path30"
             style="fill:url(#linear-gradient-10)" />
        </g>
      </g>
      <g
         id="g47">
        <g
           id="g38">
          <g
             id="g37">
            <path
               class="cls-27"
               d="m 413.24,63.25 c 1.41,-0.26 2.77,-0.71 3.78,-1.7 -0.03,-1.16 -1.41,-1.73 -2.55,-1.95 -2.34,-0.45 -4.74,-0.63 -7.13,-0.54 -1.41,0.48 -2.7,1.33 -3.71,2.43 0.81,1.18 2.22,1.86 3.63,2.09 1.41,0.23 2.87,0.08 4.29,-0.09 0.55,-0.07 1.12,-0.14 1.68,-0.24 z"
               id="path31"
               style="fill:url(#linearGradient62)" />
            <path
               class="cls-7"
               d="m 408.21,66.15 c 0.34,0.12 0.69,0.25 0.94,0.51 0.6,0.62 0.36,1.64 0.09,2.46 -1.37,1.22 -3.4,1.35 -5.2,1 -1.8,-0.35 -3.5,-1.1 -5.3,-1.43 -2.2,-0.4 -9.87,-0.8 -4.68,-3.26 4.13,-1.96 10.11,-0.67 14.15,0.73 z"
               id="path32"
               style="fill:url(#linear-gradient-12)" />
            <path
               class="cls-2"
               d="m 403.45,72.66 c 0.68,0.23 1.45,0.57 1.62,1.26 0.14,0.59 -0.25,1.21 -0.77,1.52 -0.52,0.31 -1.15,0.37 -1.76,0.42 -2.45,0.17 -17.03,-0.14 -15.45,-4.37 1.37,-3.69 13.79,0.32 16.36,1.17 z"
               id="path33"
               style="fill:url(#linear-gradient-13)" />
            <path
               class="cls-21"
               d="m 388.5,76.13 c 2.9,0.74 5.87,1.51 8.28,3.28 1.02,0.76 2,2.04 1.46,3.2 -0.61,1.31 -2.49,1.19 -3.89,0.82 -4.43,-1.16 -8.78,-2.64 -13,-4.43 -2.22,-0.94 -1.81,-3.22 0.39,-4.06 1.87,-0.72 4.92,0.73 6.77,1.19 z"
               id="path34"
               style="fill:url(#linear-gradient-14)" />
            <path
               class="cls-1"
               d="m 389.57,84.33 c 1.57,0.79 3.18,1.84 3.81,3.48 -1.3,0.87 -3.02,0.64 -4.55,0.33 -2.16,-0.45 -15.94,-3.23 -13.72,-6.53 1.99,-2.96 12.13,1.55 14.46,2.73 z"
               id="path35"
               style="fill:url(#linear-gradient-15)" />
            <path
               class="cls-33"
               d="m 387.22,91.54 c -1.18,0.8 -2.72,0.72 -4.13,0.57 -3.52,-0.39 -7.09,-1.08 -10.46,-2.2 -2.24,-0.75 -3.98,-1.24 -1.55,-2.78 1.98,-1.25 5.39,-0.32 7.39,0.25 0.94,0.27 8.69,4.2 8.74,4.17 z"
               id="path36"
               style="fill:url(#linear-gradient-16)" />
            <path
               class="cls-24"
               d="m 378.57,93.74 c 1.08,0.25 2.18,0.51 3.14,1.07 0.96,0.56 1.78,1.46 1.97,2.55 -2.18,0.28 -4.4,-0.01 -6.58,-0.31 -2.8,-0.38 -5.6,-0.75 -8.4,-1.13 -3.08,-0.41 -3.57,-3.46 -0.51,-4.26 2.84,-0.74 7.62,1.43 10.39,2.08 z"
               id="path37"
               style="fill:url(#linear-gradient-17)" />
          </g>
          <path
             class="cls-37"
             d="m 432.56,47.49 c 4.25,-0.57 4.88,6.21 0.59,6.65 -33.16,3.38 -63.55,26.52 -75.5,57.69 -0.52,-0.58 -1.14,-1.07 -1.88,-1.47 11.74,-33.37 41.31,-58.13 76.79,-62.87 z"
             id="path38"
             style="fill:url(#linearGradient63)" />
        </g>
        <g
           id="g46">
          <g
             id="g45">
            <path
               class="cls-28"
               d="m 276.56,63.25 c -1.41,-0.26 -2.77,-0.71 -3.78,-1.7 0.03,-1.16 1.41,-1.73 2.55,-1.95 2.34,-0.45 4.74,-0.63 7.13,-0.54 1.41,0.48 2.7,1.33 3.71,2.43 -0.81,1.18 -2.22,1.86 -3.63,2.09 -1.42,0.23 -2.87,0.08 -4.29,-0.09 -0.55,-0.07 -1.12,-0.14 -1.68,-0.24 z"
               id="path39"
               style="fill:url(#linear-gradient-19)" />
            <path
               class="cls-23"
               d="m 281.6,66.15 c -0.34,0.12 -0.69,0.25 -0.94,0.51 -0.6,0.62 -0.36,1.64 -0.09,2.46 1.37,1.22 3.4,1.35 5.2,1 1.8,-0.35 3.5,-1.1 5.3,-1.43 2.2,-0.4 9.87,-0.8 4.68,-3.26 -4.13,-1.96 -10.11,-0.67 -14.15,0.73 z"
               id="path40"
               style="fill:url(#linear-gradient-20)" />
            <path
               class="cls-31"
               d="m 286.36,72.66 c -0.68,0.23 -1.45,0.57 -1.62,1.26 -0.14,0.59 0.25,1.21 0.77,1.52 0.52,0.31 1.15,0.37 1.76,0.42 2.45,0.17 17.03,-0.14 15.45,-4.37 -1.37,-3.69 -13.79,0.32 -16.36,1.17 z"
               id="path41"
               style="fill:url(#linear-gradient-21)" />
            <path
               class="cls-17"
               d="m 301.31,76.13 c -2.9,0.74 -5.87,1.51 -8.28,3.28 -1.02,0.76 -2,2.04 -1.46,3.2 0.61,1.31 2.49,1.19 3.89,0.82 4.43,-1.16 8.78,-2.64 13,-4.43 2.22,-0.94 1.81,-3.22 -0.39,-4.06 -1.87,-0.72 -4.92,0.73 -6.77,1.19 z"
               id="path42"
               style="fill:url(#linear-gradient-22)" />
            <path
               class="cls-35"
               d="m 300.24,84.33 c -1.57,0.79 -3.18,1.84 -3.81,3.48 1.3,0.87 3.02,0.64 4.55,0.33 2.16,-0.45 15.94,-3.23 13.72,-6.53 -1.99,-2.96 -12.13,1.55 -14.46,2.73 z"
               id="path43"
               style="fill:url(#linear-gradient-23)" />
            <path
               class="cls-18"
               d="m 302.59,91.54 c 1.18,0.8 2.72,0.72 4.13,0.57 3.52,-0.39 7.09,-1.08 10.46,-2.2 2.24,-0.75 3.98,-1.24 1.55,-2.78 -1.98,-1.25 -5.39,-0.32 -7.39,0.25 -0.94,0.27 -8.69,4.2 -8.74,4.17 z"
               id="path44"
               style="fill:url(#linear-gradient-24)" />
            <path
               class="cls-5"
               d="m 311.24,93.74 c -1.08,0.25 -2.18,0.51 -3.14,1.07 -0.96,0.56 -1.78,1.46 -1.97,2.55 2.18,0.28 4.4,-0.01 6.58,-0.31 2.8,-0.38 5.6,-0.75 8.4,-1.13 3.08,-0.41 3.57,-3.46 0.51,-4.26 -2.84,-0.74 -7.62,1.43 -10.39,2.08 z"
               id="path45"
               style="fill:url(#linear-gradient-25)" />
          </g>
          <path
             class="cls-10"
             d="m 257.25,47.49 c -4.25,-0.57 -4.88,6.21 -0.59,6.65 33.16,3.38 63.55,26.52 75.5,57.69 0.52,-0.58 1.14,-1.07 1.88,-1.47 C 322.3,76.99 292.73,52.23 257.25,47.49 Z"
             id="path46"
             style="fill:url(#linear-gradient-26)" />
        </g>
      </g>
      <g
         id="g56">
        <path
           class="cls-8"
           d="m 277.17,313.76 c -6.77,0.87 -13.43,-1.8 -19.69,-4.5 -10.98,-4.75 -21.88,-9.83 -31.77,-16.56 -9.88,-6.74 -18.77,-15.23 -24.61,-25.67 -2.85,-5.1 -5,-10.89 -4.31,-16.69 0.67,-5.61 3.95,-10.65 8.09,-14.49 4.14,-3.84 9.13,-6.64 14.08,-9.36 4.83,-2.65 9.68,-5.28 14.56,-7.83 10.13,-5.31 20.4,-10.34 30.91,-14.84 4.69,-2.01 9.45,-3.93 13.88,-6.46 4.04,-2.31 7.78,-5.11 11.51,-7.9 5.1,-3.82 9.62,-7.78 14.13,-12.23 3.46,-3.42 10.24,-6.9 14.05,-1.89 0.14,0.18 0.27,0.37 0.38,0.56 1.08,1.8 1.21,4.07 1.27,6.2 1,35.18 -4.79,70.55 -16.98,103.57 -2.31,6.25 -4.89,12.51 -8.99,17.77 -4.1,5.26 -9.92,9.47 -16.53,10.31 z"
           id="path47"
           style="fill:url(#linear-gradient-27)" />
        <path
           class="cls-3"
           d="m 260.08,230.77 c 18.99,-13.98 39.29,-26.31 59.67,-37.96 -0.01,1.37 -0.04,2.74 -0.07,4.11 -19.68,11.29 -39.24,23.24 -57.53,36.7 -2.59,1.91 -5.13,3.83 -7.61,5.75 1.29,21.76 -1.57,43.96 -8.14,64.89 -1.07,-0.51 -2.13,-1.02 -3.19,-1.55 6.09,-19.59 8.87,-40.31 7.96,-60.7 -15.57,12.37 -28.81,25.11 -40.06,38.38 -0.82,-0.86 -1.63,-1.73 -2.41,-2.63 13.94,-16.38 30.9,-31.93 51.37,-47 z"
           id="path48"
           style="fill:url(#linear-gradient-28)" />
        <path
           class="cls-22"
           d="m 317.46,225.13 c -0.21,1.67 -0.4,3.34 -0.64,5.01 -9.73,9.08 -17.77,21.12 -23.11,35.17 -5.76,15.15 -8.13,31.25 -9.09,45.98 -1.1,0.59 -2.24,1.09 -3.41,1.49 0.9,-15.45 3.28,-32.54 9.41,-48.67 6.04,-15.89 15.44,-29.31 26.85,-38.98 z"
           id="path49"
           style="fill:url(#linear-gradient-29)" />
        <g
           id="g51">
          <path
             class="cls-13"
             d="m 260.08,230.77 c 18.99,-13.98 39.29,-26.31 59.67,-37.96 -0.01,1.37 -0.04,2.74 -0.07,4.11 -19.68,11.29 -39.24,23.24 -57.53,36.7 -2.59,1.91 -5.13,3.83 -7.61,5.75 1.29,21.76 -1.57,43.96 -8.14,64.89 -1.07,-0.51 -2.13,-1.02 -3.19,-1.55 6.09,-19.59 8.87,-40.31 7.96,-60.7 -15.57,12.37 -28.81,25.11 -40.06,38.38 -0.82,-0.86 -1.63,-1.73 -2.41,-2.63 13.94,-16.38 30.9,-31.93 51.37,-47 z"
             id="path50"
             style="fill:url(#linear-gradient-30)" />
          <path
             class="cls-36"
             d="m 317.46,225.13 c -0.21,1.67 -0.4,3.34 -0.64,5.01 -9.73,9.08 -17.77,21.12 -23.11,35.17 -5.76,15.15 -8.13,31.25 -9.09,45.98 -1.1,0.59 -2.24,1.09 -3.41,1.49 0.9,-15.45 3.28,-32.54 9.41,-48.67 6.04,-15.89 15.44,-29.31 26.85,-38.98 z"
             id="path51"
             style="fill:url(#linear-gradient-31)" />
        </g>
        <path
           class="cls-32"
           d="m 156.18,235.28 c -7.21,-6.5 -10.51,-16.17 -13.39,-25.43 -5.05,-16.25 -9.68,-32.73 -11.57,-49.64 -1.89,-16.91 -0.96,-34.38 4.88,-50.36 2.86,-7.81 7.12,-15.49 14.02,-20.12 6.68,-4.48 15.16,-5.61 23.14,-4.7 7.99,0.91 15.63,3.69 23.15,6.52 7.34,2.75 14.67,5.56 21.95,8.46 15.12,6.02 30.07,12.44 44.68,19.6 6.52,3.2 13,6.56 19.84,9 6.24,2.22 12.74,3.66 19.21,5.1 8.84,1.96 17.32,3.17 26.29,3.91 6.9,0.57 16.93,4.66 15.07,13.42 -0.07,0.32 -0.15,0.63 -0.26,0.93 -0.94,2.84 -3.27,5.08 -5.51,7.12 -37.05,33.7 -80.59,60.23 -127.53,77.7 -8.89,3.31 -18.04,6.32 -27.51,6.77 -9.47,0.45 -19.42,-1.93 -26.46,-8.28 z"
           id="path52"
           style="fill:url(#linear-gradient-32)" />
        <g
           id="g55">
          <path
             class="cls-19"
             d="m 216.65,122.66 c -28.24,-8.46 -54.66,-13.18 -79.93,-14.42 0.56,-1.43 1.16,-2.85 1.83,-4.24 29.97,1.64 61.52,8.11 95.71,19.74 33.22,11.3 65.37,26.21 96.62,41.38 -1.2,1.04 -2.41,2.05 -3.62,3.07 -30.6,-14.82 -62.03,-29.34 -94.42,-40.36 -3.75,-1.28 -7.47,-2.48 -11.15,-3.64 -26.03,20.52 -57.18,35.12 -89.64,42.34 -0.22,-1.42 -0.39,-2.86 -0.57,-4.29 30.71,-6.89 60.23,-20.52 85.17,-39.6 z"
             id="path53"
             style="fill:url(#linear-gradient-33)" />
          <path
             class="cls-15"
             d="m 214.36,165.78 c 26.82,-3.55 64.75,-3.75 99.91,12.98 -1.21,0.94 -2.43,1.88 -3.66,2.81 -33.75,-15.43 -69.97,-15.14 -95.75,-11.73 -1.42,0.19 -2.84,0.42 -4.26,0.63 l 0.27,0.21 c -17.59,21.9 -37.7,41.45 -59.93,58.41 -0.75,-1.14 -1.44,-2.32 -2.08,-3.54 20.71,-15.85 39.55,-33.99 56.18,-54.19 -23.43,4.06 -46.36,11.34 -67.82,19.35 -0.35,-1.33 -0.7,-2.66 -1.03,-4 24.57,-9.17 51.11,-17.36 78.18,-20.94 z"
             id="path54"
             style="fill:url(#linear-gradient-34)" />
          <path
             class="cls-12"
             d="m 291.38,195.19 c -1.79,1.2 -3.58,2.41 -5.39,3.58 -17.53,-1.23 -36.5,2.38 -54.72,10.72 -18.96,8.68 -35.6,21.49 -49.55,34.12 -1.94,0.05 -3.88,0 -5.82,-0.19 14.79,-13.75 32.83,-28.09 53.69,-37.64 20.61,-9.44 42.2,-13.01 61.79,-10.59 z"
             id="path55"
             style="fill:url(#linear-gradient-35)" />
        </g>
      </g>
      <path
         class="cls-30"
         d="m 388.42,138.38 c -0.71,-4.14 -3.43,-7.7 -6.66,-10.37 -0.53,-0.44 -1.22,-0.89 -2,-1.34 1.67,-3.78 -1.71,-7.83 -6,-6.81 -0.38,-0.56 -0.84,-1.07 -1.32,-1.54 -7.26,-7.3 -17.25,-11.98 -27.53,-12.26 v 0 c -10.28,0.28 -20.27,4.96 -27.53,12.26 -0.48,0.48 -0.94,0.99 -1.32,1.54 -4.29,-1.01 -7.67,3.03 -6,6.81 -0.79,0.45 -1.47,0.9 -2,1.34 -3.23,2.67 -5.95,6.24 -6.66,10.37 -0.51,2.98 0.04,6.04 0.72,8.99 4.5,19.74 14.38,38.11 17.23,58.16 1.72,12.08 0.81,24.28 0.36,36.41 -0.22,5.95 0.87,21.27 2.1,34.66 0.56,6.1 1.15,11.81 1.65,16.04 0.27,2.29 0.52,4.15 0.72,5.41 0.07,0.4 0.14,0.8 0.21,1.2 v 0 c 0.94,5.44 2.25,10.81 3.92,16.08 0.69,2.16 1.43,4.29 2.23,6.4 0.47,1.23 0.95,2.45 1.46,3.67 1.01,2.42 10.74,17.9 12.91,22.55 v 0 c 0,0 0,0 0,0 v 0 c 0,0 0,0 0,0 2.16,-4.65 11.9,-20.13 12.91,-22.55 0.51,-1.21 0.99,-2.44 1.46,-3.67 0.81,-2.11 1.55,-4.25 2.23,-6.4 1.67,-5.26 2.99,-10.64 3.92,-16.07 v 0 c 0.07,-0.41 0.14,-0.8 0.21,-1.2 0.2,-1.26 0.45,-3.12 0.72,-5.41 0.51,-4.23 1.09,-9.94 1.65,-16.04 1.23,-13.39 2.32,-28.7 2.1,-34.66 -0.45,-12.13 -1.36,-24.34 0.36,-36.41 2.85,-20.05 12.73,-38.42 17.23,-58.16 0.67,-2.95 1.23,-6.01 0.72,-8.99 z"
         id="path56"
         style="fill:url(#linear-gradient-36)" />
    </g>
    <path
       class="cls-9"
       d="m 309.05,169.11 h 16 l 20,65.96 20.18,-65.96 h 15.99 l 14.47,94.57 h -15.88 l -9.25,-59.73 -18.33,59.73 h -14.47 l -18.17,-59.73 -9.47,59.73 h -16.01 z"
       id="path57" />
  </g>
</svg>
