<?xml version="1.0" encoding="UTF-8"?>
<svg id="_Ñëîé_1" data-name="Ñëîé 1" xmlns="http://www.w3.org/2000/svg" xmlns:xlink="http://www.w3.org/1999/xlink" viewBox="0 0 689.81 395.39">
  <defs>
    <style>
      .cls-1 {
        fill: url(#linear-gradient-15);
      }

      .cls-2 {
        fill: url(#linear-gradient-13);
      }

      .cls-3 {
        fill: url(#linear-gradient-28);
      }

      .cls-4 {
        fill: url(#linear-gradient-2);
      }

      .cls-5 {
        fill: url(#linear-gradient-25);
      }

      .cls-6 {
        fill: url(#linear-gradient-10);
      }

      .cls-7 {
        fill: url(#linear-gradient-12);
      }

      .cls-8 {
        fill: url(#linear-gradient-27);
      }

      .cls-9 {
        fill: #fff;
      }

      .cls-10 {
        fill: url(#linear-gradient-26);
      }

      .cls-11 {
        fill: url(#linear-gradient-4);
      }

      .cls-12 {
        fill: url(#linear-gradient-35);
      }

      .cls-13 {
        fill: url(#linear-gradient-30);
      }

      .cls-14 {
        fill: url(#linear-gradient-3);
      }

      .cls-15 {
        fill: url(#linear-gradient-34);
      }

      .cls-16 {
        fill: url(#linear-gradient-5);
      }

      .cls-17 {
        fill: url(#linear-gradient-22);
      }

      .cls-18 {
        fill: url(#linear-gradient-24);
      }

      .cls-19 {
        fill: url(#linear-gradient-33);
      }

      .cls-20 {
        fill: url(#linear-gradient-8);
      }

      .cls-21 {
        fill: url(#linear-gradient-14);
      }

      .cls-22 {
        fill: url(#linear-gradient-29);
      }

      .cls-23 {
        fill: url(#linear-gradient-20);
      }

      .cls-24 {
        fill: url(#linear-gradient-17);
      }

      .cls-25 {
        fill: url(#linear-gradient-7);
      }

      .cls-26 {
        fill: url(#linear-gradient-9);
      }

      .cls-27 {
        fill: url(#linear-gradient-11);
      }

      .cls-28 {
        fill: url(#linear-gradient-19);
      }

      .cls-29 {
        fill: url(#linear-gradient-6);
      }

      .cls-30 {
        fill: url(#linear-gradient-36);
      }

      .cls-31 {
        fill: url(#linear-gradient-21);
      }

      .cls-32 {
        fill: url(#linear-gradient-32);
      }

      .cls-33 {
        fill: url(#linear-gradient-16);
      }

      .cls-34 {
        fill: url(#linear-gradient);
      }

      .cls-35 {
        fill: url(#linear-gradient-23);
      }

      .cls-36 {
        fill: url(#linear-gradient-31);
      }

      .cls-37 {
        fill: url(#linear-gradient-18);
      }
    </style>
    <linearGradient id="linear-gradient" x1="75.98" y1="-70.61" x2="613.83" y2="467.24" gradientUnits="userSpaceOnUse">
      <stop offset="0" stop-color="#111827"/>
      <stop offset=".5" stop-color="#581c87"/>
      <stop offset="1" stop-color="#312e81"/>
    </linearGradient>
    <linearGradient id="linear-gradient-2" x1="5915.17" y1="7865.54" x2="5821.81" y2="7805.74" gradientTransform="translate(-8582.3 4296.48) rotate(-77.64)" gradientUnits="userSpaceOnUse">
      <stop offset="0" stop-color="#db2777"/>
      <stop offset=".51" stop-color="#fe5134"/>
      <stop offset="1" stop-color="#fda547"/>
    </linearGradient>
    <linearGradient id="linear-gradient-3" x1="5912.16" y1="7870.22" x2="5818.8" y2="7810.42" xlink:href="#linear-gradient-2"/>
    <linearGradient id="linear-gradient-4" x1="5912.75" y1="7869.3" x2="5819.39" y2="7809.5" xlink:href="#linear-gradient-2"/>
    <linearGradient id="linear-gradient-5" x1="8059.27" y1="-4600.97" x2="8136.11" y2="-4711.27" gradientTransform="translate(-8106.92 -3734.53) rotate(55.14)" gradientUnits="userSpaceOnUse">
      <stop offset=".27" stop-color="#db2777"/>
      <stop offset=".75" stop-color="#fe5134"/>
    </linearGradient>
    <linearGradient id="linear-gradient-6" x1="9004.5" y1="-3909.64" x2="9032.27" y2="-3937" gradientTransform="translate(-8871.7 -3265.04) rotate(44.57)" xlink:href="#linear-gradient-5"/>
    <linearGradient id="linear-gradient-7" x1="-288.54" y1="7075.36" x2="-116.21" y2="7096.46" gradientTransform="translate(-5392.9 4271.22) rotate(-126.98)" gradientUnits="userSpaceOnUse">
      <stop offset="0" stop-color="#18949c"/>
      <stop offset=".53" stop-color="#2c8f78"/>
      <stop offset="1" stop-color="#408b57"/>
    </linearGradient>
    <linearGradient id="linear-gradient-8" x1="11061.26" y1="136.1" x2="11260.65" y2="136.1" gradientTransform="translate(-10786.36)" gradientUnits="userSpaceOnUse">
      <stop offset="0" stop-color="#408b57"/>
      <stop offset="1" stop-color="#064e3b"/>
    </linearGradient>
    <linearGradient id="linear-gradient-9" x1="11077.87" y1="196.47" x2="11255.95" y2="196.47" xlink:href="#linear-gradient-8"/>
    <linearGradient id="linear-gradient-10" x1="11100.76" y1="219.04" x2="11216.24" y2="219.04" xlink:href="#linear-gradient-8"/>
    <linearGradient id="linear-gradient-11" x1="8605.12" y1="-264.99" x2="8604.27" y2="-259.6" gradientTransform="translate(8926.35 -322.91) rotate(175.7) scale(1 -1)" gradientUnits="userSpaceOnUse">
      <stop offset="0" stop-color="#fe4d33"/>
      <stop offset="1" stop-color="#fda547"/>
    </linearGradient>
    <linearGradient id="linear-gradient-12" x1="8427.45" y1="-777.21" x2="8427.17" y2="-769.41" gradientTransform="translate(8732.04 -829.12) rotate(168.67) scale(1 -1)" xlink:href="#linear-gradient-11"/>
    <linearGradient id="linear-gradient-13" x1="8223.18" y1="-1195.43" x2="8223.8" y2="-1186.65" gradientTransform="translate(8516.48 -1242.41) rotate(162.65) scale(1 -1)" xlink:href="#linear-gradient-11"/>
    <linearGradient id="linear-gradient-14" x1="8231.56" y1="-1193.03" x2="8232.4" y2="-1181.12" gradientTransform="translate(8516.48 -1242.41) rotate(162.65) scale(1 -1)" xlink:href="#linear-gradient-11"/>
    <linearGradient id="linear-gradient-15" x1="8238.02" y1="-1189.01" x2="8238.8" y2="-1178.06" gradientTransform="translate(8516.48 -1242.41) rotate(162.65) scale(1 -1)" xlink:href="#linear-gradient-11"/>
    <linearGradient id="linear-gradient-16" x1="8244.87" y1="-1184.71" x2="8245.47" y2="-1176.29" gradientTransform="translate(8516.48 -1242.41) rotate(162.65) scale(1 -1)" xlink:href="#linear-gradient-11"/>
    <linearGradient id="linear-gradient-17" x1="8250" y1="-1181.13" x2="8250.65" y2="-1172.03" gradientTransform="translate(8516.48 -1242.41) rotate(162.65) scale(1 -1)" xlink:href="#linear-gradient-11"/>
    <linearGradient id="linear-gradient-18" x1="8016.42" y1="-1638.01" x2="7999.09" y2="-1608" gradientTransform="translate(8286.4 -1696.05) rotate(155.99) scale(1 -1)" gradientUnits="userSpaceOnUse">
      <stop offset="0" stop-color="#581f28"/>
      <stop offset="0" stop-color="#5a1f2a"/>
      <stop offset=".82" stop-color="#b74f17"/>
      <stop offset=".95" stop-color="#c75815"/>
    </linearGradient>
    <linearGradient id="linear-gradient-19" x1="74.05" y1="376.93" x2="73.19" y2="382.32" gradientTransform="translate(150.58 -322.91) rotate(4.3)" xlink:href="#linear-gradient-11"/>
    <linearGradient id="linear-gradient-20" x1="38.84" y1="902.86" x2="38.57" y2="910.66" gradientTransform="translate(344.89 -829.12) rotate(11.33)" xlink:href="#linear-gradient-11"/>
    <linearGradient id="linear-gradient-21" x1="57.23" y1="1355.74" x2="57.85" y2="1364.52" gradientTransform="translate(560.45 -1242.41) rotate(17.35)" xlink:href="#linear-gradient-11"/>
    <linearGradient id="linear-gradient-22" x1="65.6" y1="1358.14" x2="66.44" y2="1370.05" gradientTransform="translate(560.45 -1242.41) rotate(17.35)" xlink:href="#linear-gradient-11"/>
    <linearGradient id="linear-gradient-23" x1="72.07" y1="1362.16" x2="72.84" y2="1373.11" gradientTransform="translate(560.45 -1242.41) rotate(17.35)" xlink:href="#linear-gradient-11"/>
    <linearGradient id="linear-gradient-24" x1="78.92" y1="1366.46" x2="79.51" y2="1374.88" gradientTransform="translate(560.45 -1242.41) rotate(17.35)" xlink:href="#linear-gradient-11"/>
    <linearGradient id="linear-gradient-25" x1="84.05" y1="1370.04" x2="84.69" y2="1379.14" gradientTransform="translate(560.45 -1242.41) rotate(17.35)" xlink:href="#linear-gradient-11"/>
    <linearGradient id="linear-gradient-26" x1="201.19" y1="1842.41" x2="183.86" y2="1872.43" gradientTransform="translate(790.53 -1696.05) rotate(24.01)" xlink:href="#linear-gradient-18"/>
    <linearGradient id="linear-gradient-27" x1="5486.63" y1="5909.89" x2="5393.27" y2="5850.09" gradientTransform="translate(7101.98 4296.48) rotate(-102.36) scale(1 -1)" xlink:href="#linear-gradient-2"/>
    <linearGradient id="linear-gradient-28" x1="5483.62" y1="5914.57" x2="5390.26" y2="5854.77" gradientTransform="translate(7101.98 4296.48) rotate(-102.36) scale(1 -1)" xlink:href="#linear-gradient-2"/>
    <linearGradient id="linear-gradient-29" x1="5484.21" y1="5913.65" x2="5390.85" y2="5853.85" gradientTransform="translate(7101.98 4296.48) rotate(-102.36) scale(1 -1)" xlink:href="#linear-gradient-2"/>
    <linearGradient id="linear-gradient-30" x1="6914.92" y1="-2958.21" x2="6991.75" y2="-3068.51" gradientTransform="translate(6626.6 -3734.53) rotate(124.86) scale(1 -1)" xlink:href="#linear-gradient-5"/>
    <linearGradient id="linear-gradient-31" x1="7578.25" y1="-2504.64" x2="7606.03" y2="-2532" gradientTransform="translate(7391.39 -3265.04) rotate(135.43) scale(1 -1)" xlink:href="#linear-gradient-5"/>
    <linearGradient id="linear-gradient-32" x1="915.75" y1="5476.02" x2="1088.08" y2="5497.12" gradientTransform="translate(3912.58 4271.22) rotate(-53.02) scale(1 -1)" xlink:href="#linear-gradient-7"/>
    <linearGradient id="linear-gradient-33" x1="9059.2" y1="136.1" x2="9258.6" y2="136.1" gradientTransform="translate(9306.04) rotate(-180) scale(1 -1)" xlink:href="#linear-gradient-8"/>
    <linearGradient id="linear-gradient-34" x1="9075.82" y1="196.47" x2="9253.9" y2="196.47" gradientTransform="translate(9306.04) rotate(-180) scale(1 -1)" xlink:href="#linear-gradient-8"/>
    <linearGradient id="linear-gradient-35" x1="9098.71" y1="219.04" x2="9214.19" y2="219.04" gradientTransform="translate(9306.04) rotate(-180) scale(1 -1)" xlink:href="#linear-gradient-8"/>
    <linearGradient id="linear-gradient-36" x1="260.87" y1="106.05" x2="260.87" y2="347.94" gradientUnits="userSpaceOnUse">
      <stop offset=".33" stop-color="#5a1f2a"/>
      <stop offset=".61" stop-color="#93371e"/>
      <stop offset="1" stop-color="#c75815"/>
    </linearGradient>
  </defs>
  <rect class="cls-34" x=".1" y=".57" width="689.61" height="395.49" rx="8" ry="8"/>
  <g>
    <g>
      <g>
        <path class="cls-4" d="M328.61,313.76c6.77.87,13.43-1.8,19.69-4.5,10.98-4.75,21.88-9.83,31.77-16.56,9.88-6.74,18.77-15.23,24.61-25.67,2.85-5.1,5-10.89,4.31-16.69-.67-5.61-3.95-10.65-8.09-14.49-4.14-3.84-9.13-6.64-14.08-9.36-4.83-2.65-9.68-5.28-14.56-7.83-10.13-5.31-20.4-10.34-30.91-14.84-4.69-2.01-9.45-3.93-13.88-6.46-4.04-2.31-7.78-5.11-11.51-7.9-5.1-3.82-9.62-7.78-14.13-12.23-3.46-3.42-10.24-6.9-14.05-1.89-.14.18-.27.37-.38.56-1.08,1.8-1.21,4.07-1.27,6.2-1,35.18,4.79,70.55,16.98,103.57,2.31,6.25,4.89,12.51,8.99,17.77,4.1,5.26,9.92,9.47,16.53,10.31Z"/>
        <path class="cls-14" d="M345.69,230.77c-18.99-13.98-39.29-26.31-59.67-37.96.01,1.37.04,2.74.07,4.11,19.68,11.29,39.24,23.24,57.53,36.7,2.59,1.91,5.13,3.83,7.61,5.75-1.29,21.76,1.57,43.96,8.14,64.89,1.07-.51,2.13-1.02,3.19-1.55-6.09-19.59-8.87-40.31-7.96-60.7,15.57,12.37,28.81,25.11,40.06,38.38.82-.86,1.63-1.73,2.41-2.63-13.94-16.38-30.9-31.93-51.37-47Z"/>
        <path class="cls-11" d="M288.31,225.13c.21,1.67.4,3.34.64,5.01,9.73,9.08,17.77,21.12,23.11,35.17,5.76,15.15,8.13,31.25,9.09,45.98,1.1.59,2.24,1.09,3.41,1.49-.9-15.45-3.28-32.54-9.41-48.67-6.04-15.89-15.44-29.31-26.85-38.98Z"/>
        <g>
          <path class="cls-16" d="M345.69,230.77c-18.99-13.98-39.29-26.31-59.67-37.96.01,1.37.04,2.74.07,4.11,19.68,11.29,39.24,23.24,57.53,36.7,2.59,1.91,5.13,3.83,7.61,5.75-1.29,21.76,1.57,43.96,8.14,64.89,1.07-.51,2.13-1.02,3.19-1.55-6.09-19.59-8.87-40.31-7.96-60.7,15.57,12.37,28.81,25.11,40.06,38.38.82-.86,1.63-1.73,2.41-2.63-13.94-16.38-30.9-31.93-51.37-47Z"/>
          <path class="cls-29" d="M288.31,225.13c.21,1.67.4,3.34.64,5.01,9.73,9.08,17.77,21.12,23.11,35.17,5.76,15.15,8.13,31.25,9.09,45.98,1.1.59,2.24,1.09,3.41,1.49-.9-15.45-3.28-32.54-9.41-48.67-6.04-15.89-15.44-29.31-26.85-38.98Z"/>
        </g>
        <path class="cls-25" d="M449.59,235.28c7.21-6.5,10.51-16.17,13.39-25.43,5.05-16.25,9.68-32.73,11.57-49.64,1.89-16.91.96-34.38-4.88-50.36-2.86-7.81-7.12-15.49-14.02-20.12-6.68-4.48-15.16-5.61-23.14-4.7-7.99.91-15.63,3.69-23.15,6.52-7.34,2.75-14.67,5.56-21.95,8.46-15.12,6.02-30.07,12.44-44.68,19.6-6.52,3.2-13,6.56-19.84,9-6.24,2.22-12.74,3.66-19.21,5.1-8.84,1.96-17.32,3.17-26.29,3.91-6.9.57-16.93,4.66-15.07,13.42.07.32.15.63.26.93.94,2.84,3.27,5.08,5.51,7.12,37.05,33.7,80.59,60.23,127.53,77.7,8.89,3.31,18.04,6.32,27.51,6.77,9.47.45,19.42-1.93,26.46-8.28Z"/>
        <g>
          <path class="cls-20" d="M389.12,122.66c28.24-8.46,54.66-13.18,79.93-14.42-.56-1.43-1.16-2.85-1.83-4.24-29.97,1.64-61.52,8.11-95.71,19.74-33.22,11.3-65.37,26.21-96.62,41.38,1.2,1.04,2.41,2.05,3.62,3.07,30.6-14.82,62.03-29.34,94.42-40.36,3.75-1.28,7.47-2.48,11.15-3.64,26.03,20.52,57.18,35.12,89.64,42.34.22-1.42.39-2.86.57-4.29-30.71-6.89-60.23-20.52-85.17-39.6Z"/>
          <path class="cls-26" d="M391.41,165.78c-26.82-3.55-64.75-3.75-99.91,12.98,1.21.94,2.43,1.88,3.66,2.81,33.75-15.43,69.97-15.14,95.75-11.73,1.42.19,2.84.42,4.26.63l-.27.21c17.59,21.9,37.7,41.45,59.93,58.41.75-1.14,1.44-2.32,2.08-3.54-20.71-15.85-39.55-33.99-56.18-54.19,23.43,4.06,46.36,11.34,67.82,19.35.35-1.33.7-2.66,1.03-4-24.57-9.17-51.11-17.36-78.18-20.94Z"/>
          <path class="cls-6" d="M314.4,195.19c1.79,1.2,3.58,2.41,5.39,3.58,17.53-1.23,36.5,2.38,54.72,10.72,18.96,8.68,35.6,21.49,49.55,34.12,1.94.05,3.88,0,5.82-.19-14.79-13.75-32.83-28.09-53.69-37.64-20.61-9.44-42.2-13.01-61.79-10.59Z"/>
        </g>
      </g>
      <g>
        <g>
          <g>
            <path class="cls-27" d="M329.21,63.25c1.41-.26,2.77-.71,3.78-1.7-.03-1.16-1.41-1.73-2.55-1.95-2.34-.45-4.74-.63-7.13-.54-1.41.48-2.7,1.33-3.71,2.43.81,1.18,2.22,1.86,3.63,2.09s2.87.08,4.29-.09c.55-.07,1.12-.14,1.68-.24Z"/>
            <path class="cls-7" d="M324.18,66.15c.34.12.69.25.94.51.6.62.36,1.64.09,2.46-1.37,1.22-3.4,1.35-5.2,1-1.8-.35-3.5-1.1-5.3-1.43-2.2-.4-9.87-.8-4.68-3.26,4.13-1.96,10.11-.67,14.15.73Z"/>
            <path class="cls-2" d="M319.42,72.66c.68.23,1.45.57,1.62,1.26.14.59-.25,1.21-.77,1.52-.52.31-1.15.37-1.76.42-2.45.17-17.03-.14-15.45-4.37,1.37-3.69,13.79.32,16.36,1.17Z"/>
            <path class="cls-21" d="M304.46,76.13c2.9.74,5.87,1.51,8.28,3.28,1.02.76,2,2.04,1.46,3.2-.61,1.31-2.49,1.19-3.89.82-4.43-1.16-8.78-2.64-13-4.43-2.22-.94-1.81-3.22.39-4.06,1.87-.72,4.92.73,6.77,1.19Z"/>
            <path class="cls-1" d="M305.53,84.33c1.57.79,3.18,1.84,3.81,3.48-1.3.87-3.02.64-4.55.33-2.16-.45-15.94-3.23-13.72-6.53,1.99-2.96,12.13,1.55,14.46,2.73Z"/>
            <path class="cls-33" d="M303.18,91.54c-1.18.8-2.72.72-4.13.57-3.52-.39-7.09-1.08-10.46-2.2-2.24-.75-3.98-1.24-1.55-2.78,1.98-1.25,5.39-.32,7.39.25.94.27,8.69,4.2,8.74,4.17Z"/>
            <path class="cls-24" d="M294.53,93.74c1.08.25,2.18.51,3.14,1.07s1.78,1.46,1.97,2.55c-2.18.28-4.4-.01-6.58-.31-2.8-.38-5.6-.75-8.4-1.13-3.08-.41-3.57-3.46-.51-4.26,2.84-.74,7.62,1.43,10.39,2.08Z"/>
          </g>
          <path class="cls-37" d="M348.52,47.49c4.25-.57,4.88,6.21.59,6.65-33.16,3.38-63.55,26.52-75.5,57.69-.52-.58-1.14-1.07-1.88-1.47,11.74-33.37,41.31-58.13,76.79-62.87Z"/>
        </g>
        <g>
          <g>
            <path class="cls-28" d="M192.53,63.25c-1.41-.26-2.77-.71-3.78-1.7.03-1.16,1.41-1.73,2.55-1.95,2.34-.45,4.74-.63,7.13-.54,1.41.48,2.7,1.33,3.71,2.43-.81,1.18-2.22,1.86-3.63,2.09-1.42.23-2.87.08-4.29-.09-.55-.07-1.12-.14-1.68-.24Z"/>
            <path class="cls-23" d="M197.56,66.15c-.34.12-.69.25-.94.51-.6.62-.36,1.64-.09,2.46,1.37,1.22,3.4,1.35,5.2,1,1.8-.35,3.5-1.1,5.3-1.43,2.2-.4,9.87-.8,4.68-3.26-4.13-1.96-10.11-.67-14.15.73Z"/>
            <path class="cls-31" d="M202.32,72.66c-.68.23-1.45.57-1.62,1.26-.14.59.25,1.21.77,1.52.52.31,1.15.37,1.76.42,2.45.17,17.03-.14,15.45-4.37-1.37-3.69-13.79.32-16.36,1.17Z"/>
            <path class="cls-17" d="M217.27,76.13c-2.9.74-5.87,1.51-8.28,3.28-1.02.76-2,2.04-1.46,3.2.61,1.31,2.49,1.19,3.89.82,4.43-1.16,8.78-2.64,13-4.43,2.22-.94,1.81-3.22-.39-4.06-1.87-.72-4.92.73-6.77,1.19Z"/>
            <path class="cls-35" d="M216.21,84.33c-1.57.79-3.18,1.84-3.81,3.48,1.3.87,3.02.64,4.55.33,2.16-.45,15.94-3.23,13.72-6.53-1.99-2.96-12.13,1.55-14.46,2.73Z"/>
            <path class="cls-18" d="M218.56,91.54c1.18.8,2.72.72,4.13.57,3.52-.39,7.09-1.08,10.46-2.2,2.24-.75,3.98-1.24,1.55-2.78-1.98-1.25-5.39-.32-7.39.25-.94.27-8.69,4.2-8.74,4.17Z"/>
            <path class="cls-5" d="M227.21,93.74c-1.08.25-2.18.51-3.14,1.07s-1.78,1.46-1.97,2.55c2.18.28,4.4-.01,6.58-.31,2.8-.38,5.6-.75,8.4-1.13,3.08-.41,3.57-3.46.51-4.26-2.84-.74-7.62,1.43-10.39,2.08Z"/>
          </g>
          <path class="cls-10" d="M173.21,47.49c-4.25-.57-4.88,6.21-.59,6.65,33.16,3.38,63.55,26.52,75.5,57.69.52-.58,1.14-1.07,1.88-1.47-11.74-33.37-41.31-58.13-76.79-62.87Z"/>
        </g>
      </g>
      <g>
        <path class="cls-8" d="M193.13,313.76c-6.77.87-13.43-1.8-19.69-4.5-10.98-4.75-21.88-9.83-31.77-16.56-9.88-6.74-18.77-15.23-24.61-25.67-2.85-5.1-5-10.89-4.31-16.69.67-5.61,3.95-10.65,8.09-14.49,4.14-3.84,9.13-6.64,14.08-9.36,4.83-2.65,9.68-5.28,14.56-7.83,10.13-5.31,20.4-10.34,30.91-14.84,4.69-2.01,9.45-3.93,13.88-6.46,4.04-2.31,7.78-5.11,11.51-7.9,5.1-3.82,9.62-7.78,14.13-12.23,3.46-3.42,10.24-6.9,14.05-1.89.14.18.27.37.38.56,1.08,1.8,1.21,4.07,1.27,6.2,1,35.18-4.79,70.55-16.98,103.57-2.31,6.25-4.89,12.51-8.99,17.77-4.1,5.26-9.92,9.47-16.53,10.31Z"/>
        <path class="cls-3" d="M176.05,230.77c18.99-13.98,39.29-26.31,59.67-37.96-.01,1.37-.04,2.74-.07,4.11-19.68,11.29-39.24,23.24-57.53,36.7-2.59,1.91-5.13,3.83-7.61,5.75,1.29,21.76-1.57,43.96-8.14,64.89-1.07-.51-2.13-1.02-3.19-1.55,6.09-19.59,8.87-40.31,7.96-60.7-15.57,12.37-28.81,25.11-40.06,38.38-.82-.86-1.63-1.73-2.41-2.63,13.94-16.38,30.9-31.93,51.37-47Z"/>
        <path class="cls-22" d="M233.43,225.13c-.21,1.67-.4,3.34-.64,5.01-9.73,9.08-17.77,21.12-23.11,35.17-5.76,15.15-8.13,31.25-9.09,45.98-1.1.59-2.24,1.09-3.41,1.49.9-15.45,3.28-32.54,9.41-48.67,6.04-15.89,15.44-29.31,26.85-38.98Z"/>
        <g>
          <path class="cls-13" d="M176.05,230.77c18.99-13.98,39.29-26.31,59.67-37.96-.01,1.37-.04,2.74-.07,4.11-19.68,11.29-39.24,23.24-57.53,36.7-2.59,1.91-5.13,3.83-7.61,5.75,1.29,21.76-1.57,43.96-8.14,64.89-1.07-.51-2.13-1.02-3.19-1.55,6.09-19.59,8.87-40.31,7.96-60.7-15.57,12.37-28.81,25.11-40.06,38.38-.82-.86-1.63-1.73-2.41-2.63,13.94-16.38,30.9-31.93,51.37-47Z"/>
          <path class="cls-36" d="M233.43,225.13c-.21,1.67-.4,3.34-.64,5.01-9.73,9.08-17.77,21.12-23.11,35.17-5.76,15.15-8.13,31.25-9.09,45.98-1.1.59-2.24,1.09-3.41,1.49.9-15.45,3.28-32.54,9.41-48.67,6.04-15.89,15.44-29.31,26.85-38.98Z"/>
        </g>
        <path class="cls-32" d="M72.14,235.28c-7.21-6.5-10.51-16.17-13.39-25.43-5.05-16.25-9.68-32.73-11.57-49.64-1.89-16.91-.96-34.38,4.88-50.36,2.86-7.81,7.12-15.49,14.02-20.12,6.68-4.48,15.16-5.61,23.14-4.7,7.99.91,15.63,3.69,23.15,6.52,7.34,2.75,14.67,5.56,21.95,8.46,15.12,6.02,30.07,12.44,44.68,19.6,6.52,3.2,13,6.56,19.84,9,6.24,2.22,12.74,3.66,19.21,5.1,8.84,1.96,17.32,3.17,26.29,3.91,6.9.57,16.93,4.66,15.07,13.42-.07.32-.15.63-.26.93-.94,2.84-3.27,5.08-5.51,7.12-37.05,33.7-80.59,60.23-127.53,77.7-8.89,3.31-18.04,6.32-27.51,6.77-9.47.45-19.42-1.93-26.46-8.28Z"/>
        <g>
          <path class="cls-19" d="M132.61,122.66c-28.24-8.46-54.66-13.18-79.93-14.42.56-1.43,1.16-2.85,1.83-4.24,29.97,1.64,61.52,8.11,95.71,19.74,33.22,11.3,65.37,26.21,96.62,41.38-1.2,1.04-2.41,2.05-3.62,3.07-30.6-14.82-62.03-29.34-94.42-40.36-3.75-1.28-7.47-2.48-11.15-3.64-26.03,20.52-57.18,35.12-89.64,42.34-.22-1.42-.39-2.86-.57-4.29,30.71-6.89,60.23-20.52,85.17-39.6Z"/>
          <path class="cls-15" d="M130.32,165.78c26.82-3.55,64.75-3.75,99.91,12.98-1.21.94-2.43,1.88-3.66,2.81-33.75-15.43-69.97-15.14-95.75-11.73-1.42.19-2.84.42-4.26.63l.27.21c-17.59,21.9-37.7,41.45-59.93,58.41-.75-1.14-1.44-2.32-2.08-3.54,20.71-15.85,39.55-33.99,56.18-54.19-23.43,4.06-46.36,11.34-67.82,19.35-.35-1.33-.7-2.66-1.03-4,24.57-9.17,51.11-17.36,78.18-20.94Z"/>
          <path class="cls-12" d="M207.34,195.19c-1.79,1.2-3.58,2.41-5.39,3.58-17.53-1.23-36.5,2.38-54.72,10.72-18.96,8.68-35.6,21.49-49.55,34.12-1.94.05-3.88,0-5.82-.19,14.79-13.75,32.83-28.09,53.69-37.64,20.61-9.44,42.2-13.01,61.79-10.59Z"/>
        </g>
      </g>
      <path class="cls-30" d="M304.38,138.38c-.71-4.14-3.43-7.7-6.66-10.37-.53-.44-1.22-.89-2-1.34,1.67-3.78-1.71-7.83-6-6.81-.38-.56-.84-1.07-1.32-1.54-7.26-7.3-17.25-11.98-27.53-12.26h0c-10.28.28-20.27,4.96-27.53,12.26-.48.48-.94.99-1.32,1.54-4.29-1.01-7.67,3.03-6,6.81-.79.45-1.47.9-2,1.34-3.23,2.67-5.95,6.24-6.66,10.37-.51,2.98.04,6.04.72,8.99,4.5,19.74,14.38,38.11,17.23,58.16,1.72,12.08.81,24.28.36,36.41-.22,5.95.87,21.27,2.1,34.66.56,6.1,1.15,11.81,1.65,16.04.27,2.29.52,4.15.72,5.41.07.4.14.8.21,1.2h0c.94,5.44,2.25,10.81,3.92,16.08.69,2.16,1.43,4.29,2.23,6.4.47,1.23.95,2.45,1.46,3.67,1.01,2.42,10.74,17.9,12.91,22.55h0s0,0,0,0h0s0,0,0,0c2.16-4.65,11.9-20.13,12.91-22.55.51-1.21.99-2.44,1.46-3.67.81-2.11,1.55-4.25,2.23-6.4,1.67-5.26,2.99-10.64,3.92-16.07h0c.07-.41.14-.8.21-1.2.2-1.26.45-3.12.72-5.41.51-4.23,1.09-9.94,1.65-16.04,1.23-13.39,2.32-28.7,2.1-34.66-.45-12.13-1.36-24.34.36-36.41,2.85-20.05,12.73-38.42,17.23-58.16.67-2.95,1.23-6.01.72-8.99Z"/>
    </g>
    <g>
      <path class="cls-9" d="M357.38,212.29h12.57v50.11h-12.57v-5.3c-2.45,2.33-4.91,4.01-7.38,5.04-2.47,1.03-5.14,1.54-8.03,1.54-6.47,0-12.07-2.51-16.79-7.53-4.72-5.02-7.08-11.26-7.08-18.72s2.28-14.08,6.85-19.02c4.57-4.94,10.12-7.41,16.65-7.41,3.01,0,5.83.57,8.46,1.7,2.64,1.14,5.08,2.84,7.31,5.11v-5.53ZM344.16,222.6c-3.89,0-7.11,1.37-9.69,4.12-2.57,2.75-3.86,6.27-3.86,10.57s1.31,7.89,3.92,10.68c2.62,2.79,5.84,4.19,9.66,4.19s7.22-1.37,9.82-4.12,3.9-6.35,3.9-10.8-1.3-7.89-3.9-10.59c-2.6-2.7-5.89-4.05-9.87-4.05Z"/>
      <path class="cls-9" d="M379.71,212.29h10.78v6.31c1.17-2.49,2.72-4.38,4.65-5.66,1.93-1.29,4.05-1.93,6.36-1.93,1.63,0,3.33.43,5.11,1.29l-3.91,10.82c-1.47-.74-2.69-1.11-3.64-1.11-1.93,0-3.57,1.2-4.91,3.59-1.33,2.39-2,7.09-2,14.09l.05,2.44v20.26h-12.48v-50.11Z"/>
      <path class="cls-9" d="M449.86,212.29h12.53v42.92c0,8.47-1.7,14.71-5.11,18.7-4.58,5.4-11.47,8.11-20.68,8.11-4.91,0-9.04-.61-12.39-1.84-3.35-1.23-6.17-3.03-8.47-5.41-2.3-2.38-4.01-5.27-5.11-8.68h13.86c1.23,1.41,2.81,2.48,4.74,3.2,1.93.72,4.22,1.08,6.86,1.08,3.38,0,6.09-.52,8.15-1.57,2.06-1.04,3.51-2.39,4.35-4.05.84-1.66,1.27-4.51,1.27-8.57-2.21,2.21-4.53,3.8-6.95,4.77-2.43.97-5.17,1.45-8.24,1.45-6.72,0-12.4-2.42-17.04-7.28-4.64-4.85-6.95-10.99-6.95-18.42,0-7.95,2.46-14.34,7.37-19.16,4.45-4.36,9.76-6.54,15.94-6.54,2.89,0,5.61.53,8.18,1.59,2.56,1.06,5.13,2.8,7.71,5.23v-5.53ZM436.82,222.74c-3.96,0-7.23,1.33-9.81,3.98-2.58,2.66-3.87,6-3.87,10.02s1.32,7.6,3.96,10.27c2.64,2.67,5.96,4.01,9.95,4.01s7.12-1.3,9.65-3.91c2.53-2.61,3.8-6.03,3.8-10.27s-1.27-7.57-3.82-10.18c-2.55-2.61-5.83-3.91-9.86-3.91Z"/>
      <path class="cls-9" d="M512.08,212.29h12.57v50.11h-12.57v-5.3c-2.45,2.33-4.91,4.01-7.38,5.04-2.47,1.03-5.14,1.54-8.03,1.54-6.47,0-12.07-2.51-16.79-7.53-4.72-5.02-7.08-11.26-7.08-18.72s2.28-14.08,6.85-19.02c4.57-4.94,10.12-7.41,16.65-7.41,3.01,0,5.83.57,8.46,1.7,2.64,1.14,5.08,2.84,7.31,5.11v-5.53ZM498.86,222.6c-3.89,0-7.11,1.37-9.69,4.12-2.57,2.75-3.86,6.27-3.86,10.57s1.31,7.89,3.92,10.68c2.62,2.79,5.84,4.19,9.66,4.19s7.22-1.37,9.82-4.12c2.6-2.75,3.9-6.35,3.9-10.8s-1.3-7.89-3.9-10.59c-2.6-2.7-5.89-4.05-9.87-4.05Z"/>
      <path class="cls-9" d="M537.36,212.29h12.57v5.13c2.85-2.4,5.43-4.07,7.75-5.01,2.31-.94,4.68-1.41,7.11-1.41,4.97,0,9.18,1.73,12.65,5.2,2.91,2.95,4.37,7.31,4.37,13.08v33.11h-12.43v-21.94c0-5.98-.27-9.95-.8-11.91-.54-1.96-1.47-3.46-2.8-4.49-1.33-1.03-2.98-1.54-4.94-1.54-2.54,0-4.73.85-6.55,2.55-1.82,1.7-3.09,4.06-3.79,7.06-.37,1.56-.55,4.95-.55,10.17v20.1h-12.57v-50.11Z"/>
      <path class="cls-9" d="M630.94,212.29h12.57v50.11h-12.57v-5.3c-2.45,2.33-4.91,4.01-7.38,5.04-2.47,1.03-5.14,1.54-8.03,1.54-6.47,0-12.07-2.51-16.79-7.53-4.72-5.02-7.08-11.26-7.08-18.72s2.28-14.08,6.85-19.02c4.57-4.94,10.12-7.41,16.65-7.41,3.01,0,5.83.57,8.46,1.7,2.64,1.14,5.08,2.84,7.31,5.11v-5.53ZM617.73,222.6c-3.89,0-7.11,1.37-9.69,4.12-2.57,2.75-3.86,6.27-3.86,10.57s1.31,7.89,3.92,10.68c2.62,2.79,5.84,4.19,9.66,4.19s7.22-1.37,9.82-4.12c2.6-2.75,3.9-6.35,3.9-10.8s-1.3-7.89-3.9-10.59c-2.6-2.7-5.89-4.05-9.87-4.05Z"/>
      <path class="cls-9" d="M225.01,169.11h16l20,65.96,20.18-65.96h15.99l14.47,94.57h-15.88l-9.25-59.73-18.33,59.73h-14.47l-18.17-59.73-9.47,59.73h-16.01l14.94-94.57Z"/>
    </g>
  </g>
</svg>