<?xml version="1.0" encoding="UTF-8"?>
<svg id="_Ñëîé_1" data-name="Ñëîé 1" xmlns="http://www.w3.org/2000/svg" xmlns:xlink="http://www.w3.org/1999/xlink" viewBox="0 0 689.81 395.39">
  <defs>
    <style>
      .cls-1 {
        fill: url(#linear-gradient-15);
      }

      .cls-2 {
        fill: url(#linear-gradient-13);
      }

      .cls-3 {
        fill: url(#linear-gradient-28);
      }

      .cls-4 {
        fill: url(#linear-gradient-2);
      }

      .cls-5 {
        fill: url(#linear-gradient-25);
      }

      .cls-6 {
        fill: url(#linear-gradient-10);
      }

      .cls-7 {
        fill: url(#linear-gradient-12);
      }

      .cls-8 {
        fill: url(#linear-gradient-27);
      }

      .cls-9 {
        fill: #fff;
      }

      .cls-10 {
        fill: url(#linear-gradient-26);
      }

      .cls-11 {
        fill: url(#linear-gradient-4);
      }

      .cls-12 {
        fill: url(#linear-gradient-35);
      }

      .cls-13 {
        fill: url(#linear-gradient-30);
      }

      .cls-14 {
        fill: url(#linear-gradient-3);
      }

      .cls-15 {
        fill: url(#linear-gradient-34);
      }

      .cls-16 {
        fill: url(#linear-gradient-5);
      }

      .cls-17 {
        fill: url(#linear-gradient-22);
      }

      .cls-18 {
        fill: url(#linear-gradient-24);
      }

      .cls-19 {
        fill: url(#linear-gradient-33);
      }

      .cls-20 {
        fill: url(#linear-gradient-8);
      }

      .cls-21 {
        fill: url(#linear-gradient-14);
      }

      .cls-22 {
        fill: url(#linear-gradient-29);
      }

      .cls-23 {
        fill: url(#linear-gradient-20);
      }

      .cls-24 {
        fill: url(#linear-gradient-17);
      }

      .cls-25 {
        fill: url(#linear-gradient-7);
      }

      .cls-26 {
        fill: url(#linear-gradient-9);
      }

      .cls-27 {
        fill: url(#linear-gradient-11);
      }

      .cls-28 {
        fill: url(#linear-gradient-19);
      }

      .cls-29 {
        fill: url(#linear-gradient-6);
      }

      .cls-30 {
        fill: url(#linear-gradient-21);
      }

      .cls-31 {
        fill: url(#linear-gradient-32);
      }

      .cls-32 {
        fill: url(#linear-gradient-16);
      }

      .cls-33 {
        fill: url(#linear-gradient);
      }

      .cls-34 {
        fill: url(#linear-gradient-23);
      }

      .cls-35 {
        fill: url(#linear-gradient-31);
      }

      .cls-36 {
        fill: url(#linear-gradient-18);
      }
    </style>
    <linearGradient id="linear-gradient" x1="4940.82" y1="8295.17" x2="4847.46" y2="8235.37" gradientTransform="translate(-8709.38 3252.75) rotate(-77.64)" gradientUnits="userSpaceOnUse">
      <stop offset="0" stop-color="#db2777"/>
      <stop offset=".51" stop-color="#fe5134"/>
      <stop offset="1" stop-color="#fda547"/>
    </linearGradient>
    <linearGradient id="linear-gradient-2" x1="4937.81" y1="8299.85" x2="4844.45" y2="8240.05" xlink:href="#linear-gradient"/>
    <linearGradient id="linear-gradient-3" x1="4938.4" y1="8298.93" x2="4845.04" y2="8239.13" xlink:href="#linear-gradient"/>
    <linearGradient id="linear-gradient-4" x1="8165.63" y1="-5444" x2="8242.46" y2="-5554.3" gradientTransform="translate(-8775.41 -3339.93) rotate(55.14)" gradientUnits="userSpaceOnUse">
      <stop offset=".27" stop-color="#db2777"/>
      <stop offset=".75" stop-color="#fe5134"/>
    </linearGradient>
    <linearGradient id="linear-gradient-5" x1="9170.36" y1="-4595.76" x2="9198.14" y2="-4623.12" gradientTransform="translate(-9387.33 -2892.65) rotate(44.57)" xlink:href="#linear-gradient-4"/>
    <linearGradient id="linear-gradient-6" x1="-1833.41" y1="7002.08" x2="-1661.07" y2="7023.18" gradientTransform="translate(-6179.6 2993.03) rotate(-126.98)" gradientUnits="userSpaceOnUse">
      <stop offset="0" stop-color="#18949c"/>
      <stop offset=".53" stop-color="#2c8f78"/>
      <stop offset="1" stop-color="#408b57"/>
    </linearGradient>
    <linearGradient id="linear-gradient-7" x1="11145.29" y1="136.1" x2="11344.69" y2="136.1" gradientTransform="translate(-10786.36)" gradientUnits="userSpaceOnUse">
      <stop offset="0" stop-color="#408b57"/>
      <stop offset="1" stop-color="#064e3b"/>
    </linearGradient>
    <linearGradient id="linear-gradient-8" x1="11161.9" y1="196.47" x2="11339.99" y2="196.47" xlink:href="#linear-gradient-7"/>
    <linearGradient id="linear-gradient-9" x1="11184.79" y1="219.04" x2="11300.27" y2="219.04" xlink:href="#linear-gradient-7"/>
    <linearGradient id="linear-gradient-10" x1="7132.29" y1="-206.5" x2="7131.43" y2="-201.11" gradientTransform="translate(7537.31 -270.73) rotate(175.7) scale(1 -1)" gradientUnits="userSpaceOnUse">
      <stop offset="0" stop-color="#fe4d33"/>
      <stop offset="1" stop-color="#fda547"/>
    </linearGradient>
    <linearGradient id="linear-gradient-11" x1="7021.61" y1="-629.48" x2="7021.34" y2="-621.68" gradientTransform="translate(7408.6 -697.89) rotate(168.67) scale(1 -1)" xlink:href="#linear-gradient-10"/>
    <linearGradient id="linear-gradient-12" x1="6883.16" y1="-978.16" x2="6883.78" y2="-969.38" gradientTransform="translate(7256.67 -1050.2) rotate(162.65) scale(1 -1)" xlink:href="#linear-gradient-10"/>
    <linearGradient id="linear-gradient-13" x1="6891.54" y1="-975.76" x2="6892.38" y2="-963.85" gradientTransform="translate(7256.67 -1050.2) rotate(162.65) scale(1 -1)" xlink:href="#linear-gradient-10"/>
    <linearGradient id="linear-gradient-14" x1="6898.01" y1="-971.74" x2="6898.78" y2="-960.79" gradientTransform="translate(7256.67 -1050.2) rotate(162.65) scale(1 -1)" xlink:href="#linear-gradient-10"/>
    <linearGradient id="linear-gradient-15" x1="6904.86" y1="-967.44" x2="6905.45" y2="-959.02" gradientTransform="translate(7256.67 -1050.2) rotate(162.65) scale(1 -1)" xlink:href="#linear-gradient-10"/>
    <linearGradient id="linear-gradient-16" x1="6909.99" y1="-963.86" x2="6910.63" y2="-954.76" gradientTransform="translate(7256.67 -1050.2) rotate(162.65) scale(1 -1)" xlink:href="#linear-gradient-10"/>
    <linearGradient id="linear-gradient-17" x1="6757.15" y1="-1352.42" x2="6739.82" y2="-1322.4" gradientTransform="translate(7103.89 -1444.64) rotate(155.99) scale(1 -1)" gradientUnits="userSpaceOnUse">
      <stop offset="0" stop-color="#581f28"/>
      <stop offset="0" stop-color="#5a1f2a"/>
      <stop offset=".82" stop-color="#b74f17"/>
      <stop offset=".95" stop-color="#c75815"/>
    </linearGradient>
    <linearGradient id="linear-gradient-18" x1="189.07" y1="315.94" x2="188.22" y2="321.33" gradientTransform="translate(115.34 -270.73) rotate(4.3)" xlink:href="#linear-gradient-10"/>
    <linearGradient id="linear-gradient-19" x1="194.35" y1="737.88" x2="194.08" y2="745.69" gradientTransform="translate(244.05 -697.89) rotate(11.33)" xlink:href="#linear-gradient-10"/>
    <linearGradient id="linear-gradient-20" x1="237.11" y1="1098.17" x2="237.73" y2="1106.95" gradientTransform="translate(395.98 -1050.2) rotate(17.35)" xlink:href="#linear-gradient-10"/>
    <linearGradient id="linear-gradient-21" x1="245.49" y1="1100.57" x2="246.33" y2="1112.48" gradientTransform="translate(395.98 -1050.2) rotate(17.35)" xlink:href="#linear-gradient-10"/>
    <linearGradient id="linear-gradient-22" x1="251.95" y1="1104.59" x2="252.72" y2="1115.54" gradientTransform="translate(395.98 -1050.2) rotate(17.35)" xlink:href="#linear-gradient-10"/>
    <linearGradient id="linear-gradient-23" x1="258.8" y1="1108.89" x2="259.39" y2="1117.31" gradientTransform="translate(395.98 -1050.2) rotate(17.35)" xlink:href="#linear-gradient-10"/>
    <linearGradient id="linear-gradient-24" x1="263.93" y1="1112.47" x2="264.57" y2="1121.57" gradientTransform="translate(395.98 -1050.2) rotate(17.35)" xlink:href="#linear-gradient-10"/>
    <linearGradient id="linear-gradient-25" x1="396.54" y1="1480.2" x2="379.21" y2="1510.22" gradientTransform="translate(548.76 -1444.64) rotate(24.01)" xlink:href="#linear-gradient-17"/>
    <linearGradient id="linear-gradient-26" x1="4171.45" y1="4784.08" x2="4078.09" y2="4724.28" gradientTransform="translate(5804.79 3252.75) rotate(-102.36) scale(1 -1)" xlink:href="#linear-gradient"/>
    <linearGradient id="linear-gradient-27" x1="4168.44" y1="4788.76" x2="4075.08" y2="4728.96" gradientTransform="translate(5804.79 3252.75) rotate(-102.36) scale(1 -1)" xlink:href="#linear-gradient"/>
    <linearGradient id="linear-gradient-28" x1="4169.03" y1="4787.84" x2="4075.67" y2="4728.04" gradientTransform="translate(5804.79 3252.75) rotate(-102.36) scale(1 -1)" xlink:href="#linear-gradient"/>
    <linearGradient id="linear-gradient-29" x1="6111.1" y1="-2494.66" x2="6187.94" y2="-2604.96" gradientTransform="translate(5870.82 -3339.93) rotate(124.86) scale(1 -1)" xlink:href="#linear-gradient-4"/>
    <linearGradient id="linear-gradient-30" x1="6609.74" y1="-2073.27" x2="6637.52" y2="-2100.64" gradientTransform="translate(6482.74 -2892.65) rotate(135.43) scale(1 -1)" xlink:href="#linear-gradient-4"/>
    <linearGradient id="linear-gradient-31" x1="328.73" y1="4130.69" x2="501.07" y2="4151.79" gradientTransform="translate(3275.01 2993.03) rotate(-53.02) scale(1 -1)" xlink:href="#linear-gradient-6"/>
    <linearGradient id="linear-gradient-32" x1="7550.89" y1="136.1" x2="7750.29" y2="136.1" gradientTransform="translate(7881.77) rotate(-180) scale(1 -1)" xlink:href="#linear-gradient-7"/>
    <linearGradient id="linear-gradient-33" x1="7567.5" y1="196.47" x2="7745.59" y2="196.47" gradientTransform="translate(7881.77) rotate(-180) scale(1 -1)" xlink:href="#linear-gradient-7"/>
    <linearGradient id="linear-gradient-34" x1="7590.39" y1="219.04" x2="7705.87" y2="219.04" gradientTransform="translate(7881.77) rotate(-180) scale(1 -1)" xlink:href="#linear-gradient-7"/>
    <linearGradient id="linear-gradient-35" x1="344.9" y1="106.05" x2="344.9" y2="347.94" gradientUnits="userSpaceOnUse">
      <stop offset=".33" stop-color="#5a1f2a"/>
      <stop offset=".61" stop-color="#93371e"/>
      <stop offset="1" stop-color="#c75815"/>
    </linearGradient>
  </defs>
  <g>
    <g>
      <path class="cls-33" d="M412.64,313.76c6.77.87,13.43-1.8,19.69-4.5,10.98-4.75,21.88-9.83,31.77-16.56,9.88-6.74,18.77-15.23,24.61-25.67,2.85-5.1,5-10.89,4.31-16.69-.67-5.61-3.95-10.65-8.09-14.49-4.14-3.84-9.13-6.64-14.08-9.36-4.83-2.65-9.68-5.28-14.56-7.83-10.13-5.31-20.4-10.34-30.91-14.84-4.69-2.01-9.45-3.93-13.88-6.46-4.04-2.31-7.78-5.11-11.51-7.9-5.1-3.82-9.62-7.78-14.13-12.23-3.46-3.42-10.24-6.9-14.05-1.89-.14.18-.27.37-.38.56-1.08,1.8-1.21,4.07-1.27,6.2-1,35.18,4.79,70.55,16.98,103.57,2.31,6.25,4.89,12.51,8.99,17.77,4.1,5.26,9.92,9.47,16.53,10.31Z"/>
      <path class="cls-4" d="M429.72,230.77c-18.99-13.98-39.29-26.31-59.67-37.96.01,1.37.04,2.74.07,4.11,19.68,11.29,39.24,23.24,57.53,36.7,2.59,1.91,5.13,3.83,7.61,5.75-1.29,21.76,1.57,43.96,8.14,64.89,1.07-.51,2.13-1.02,3.19-1.55-6.09-19.59-8.87-40.31-7.96-60.7,15.57,12.37,28.81,25.11,40.06,38.38.82-.86,1.63-1.73,2.41-2.63-13.94-16.38-30.9-31.93-51.37-47Z"/>
      <path class="cls-14" d="M372.34,225.13c.21,1.67.4,3.34.64,5.01,9.73,9.08,17.77,21.12,23.11,35.17,5.76,15.15,8.13,31.25,9.09,45.98,1.1.59,2.24,1.09,3.41,1.49-.9-15.45-3.28-32.54-9.41-48.67-6.04-15.89-15.44-29.31-26.85-38.98Z"/>
      <g>
        <path class="cls-11" d="M429.72,230.77c-18.99-13.98-39.29-26.31-59.67-37.96.01,1.37.04,2.74.07,4.11,19.68,11.29,39.24,23.24,57.53,36.7,2.59,1.91,5.13,3.83,7.61,5.75-1.29,21.76,1.57,43.96,8.14,64.89,1.07-.51,2.13-1.02,3.19-1.55-6.09-19.59-8.87-40.31-7.96-60.7,15.57,12.37,28.81,25.11,40.06,38.38.82-.86,1.63-1.73,2.41-2.63-13.94-16.38-30.9-31.93-51.37-47Z"/>
        <path class="cls-16" d="M372.34,225.13c.21,1.67.4,3.34.64,5.01,9.73,9.08,17.77,21.12,23.11,35.17,5.76,15.15,8.13,31.25,9.09,45.98,1.1.59,2.24,1.09,3.41,1.49-.9-15.45-3.28-32.54-9.41-48.67-6.04-15.89-15.44-29.31-26.85-38.98Z"/>
      </g>
      <path class="cls-29" d="M533.63,235.28c7.21-6.5,10.51-16.17,13.39-25.43,5.05-16.25,9.68-32.73,11.57-49.64,1.89-16.91.96-34.38-4.88-50.36-2.86-7.81-7.12-15.49-14.02-20.12-6.68-4.48-15.16-5.61-23.14-4.7-7.99.91-15.63,3.69-23.15,6.52-7.34,2.75-14.67,5.56-21.95,8.46-15.12,6.02-30.07,12.44-44.68,19.6-6.52,3.2-13,6.56-19.84,9-6.24,2.22-12.74,3.66-19.21,5.1-8.84,1.96-17.32,3.17-26.29,3.91-6.9.57-16.93,4.66-15.07,13.42.07.32.15.63.26.93.94,2.84,3.27,5.08,5.51,7.12,37.05,33.7,80.59,60.23,127.53,77.7,8.89,3.31,18.04,6.32,27.51,6.77,9.47.45,19.42-1.93,26.46-8.28Z"/>
      <g>
        <path class="cls-25" d="M473.16,122.66c28.24-8.46,54.66-13.18,79.93-14.42-.56-1.43-1.16-2.85-1.83-4.24-29.97,1.64-61.52,8.11-95.71,19.74-33.22,11.3-65.37,26.21-96.62,41.38,1.2,1.04,2.41,2.05,3.62,3.07,30.6-14.82,62.03-29.34,94.42-40.36,3.75-1.28,7.47-2.48,11.15-3.64,26.03,20.52,57.18,35.12,89.64,42.34.22-1.42.39-2.86.57-4.29-30.71-6.89-60.23-20.52-85.17-39.6Z"/>
        <path class="cls-20" d="M475.45,165.78c-26.82-3.55-64.75-3.75-99.91,12.98,1.21.94,2.43,1.88,3.66,2.81,33.75-15.43,69.97-15.14,95.75-11.73,1.42.19,2.84.42,4.26.63l-.27.21c17.59,21.9,37.7,41.45,59.93,58.41.75-1.14,1.44-2.32,2.08-3.54-20.71-15.85-39.55-33.99-56.18-54.19,23.43,4.06,46.36,11.34,67.82,19.35.35-1.33.7-2.66,1.03-4-24.57-9.17-51.11-17.36-78.18-20.94Z"/>
        <path class="cls-26" d="M398.43,195.19c1.79,1.2,3.58,2.41,5.39,3.58,17.53-1.23,36.5,2.38,54.72,10.72,18.96,8.68,35.6,21.49,49.55,34.12,1.94.05,3.88,0,5.82-.19-14.79-13.75-32.83-28.09-53.69-37.64-20.61-9.44-42.2-13.01-61.79-10.59Z"/>
      </g>
    </g>
    <g>
      <g>
        <g>
          <path class="cls-6" d="M413.24,63.25c1.41-.26,2.77-.71,3.78-1.7-.03-1.16-1.41-1.73-2.55-1.95-2.34-.45-4.74-.63-7.13-.54-1.41.48-2.7,1.33-3.71,2.43.81,1.18,2.22,1.86,3.63,2.09s2.87.08,4.29-.09c.55-.07,1.12-.14,1.68-.24Z"/>
          <path class="cls-27" d="M408.21,66.15c.34.12.69.25.94.51.6.62.36,1.64.09,2.46-1.37,1.22-3.4,1.35-5.2,1-1.8-.35-3.5-1.1-5.3-1.43-2.2-.4-9.87-.8-4.68-3.26,4.13-1.96,10.11-.67,14.15.73Z"/>
          <path class="cls-7" d="M403.45,72.66c.68.23,1.45.57,1.62,1.26.14.59-.25,1.21-.77,1.52-.52.31-1.15.37-1.76.42-2.45.17-17.03-.14-15.45-4.37,1.37-3.69,13.79.32,16.36,1.17Z"/>
          <path class="cls-2" d="M388.5,76.13c2.9.74,5.87,1.51,8.28,3.28,1.02.76,2,2.04,1.46,3.2-.61,1.31-2.49,1.19-3.89.82-4.43-1.16-8.78-2.64-13-4.43-2.22-.94-1.81-3.22.39-4.06,1.87-.72,4.92.73,6.77,1.19Z"/>
          <path class="cls-21" d="M389.57,84.33c1.57.79,3.18,1.84,3.81,3.48-1.3.87-3.02.64-4.55.33-2.16-.45-15.94-3.23-13.72-6.53,1.99-2.96,12.13,1.55,14.46,2.73Z"/>
          <path class="cls-1" d="M387.22,91.54c-1.18.8-2.72.72-4.13.57-3.52-.39-7.09-1.08-10.46-2.2-2.24-.75-3.98-1.24-1.55-2.78,1.98-1.25,5.39-.32,7.39.25.94.27,8.69,4.2,8.74,4.17Z"/>
          <path class="cls-32" d="M378.57,93.74c1.08.25,2.18.51,3.14,1.07s1.78,1.46,1.97,2.55c-2.18.28-4.4-.01-6.58-.31-2.8-.38-5.6-.75-8.4-1.13-3.08-.41-3.57-3.46-.51-4.26,2.84-.74,7.62,1.43,10.39,2.08Z"/>
        </g>
        <path class="cls-24" d="M432.56,47.49c4.25-.57,4.88,6.21.59,6.65-33.16,3.38-63.55,26.52-75.5,57.69-.52-.58-1.14-1.07-1.88-1.47,11.74-33.37,41.31-58.13,76.79-62.87Z"/>
      </g>
      <g>
        <g>
          <path class="cls-36" d="M276.56,63.25c-1.41-.26-2.77-.71-3.78-1.7.03-1.16,1.41-1.73,2.55-1.95,2.34-.45,4.74-.63,7.13-.54,1.41.48,2.7,1.33,3.71,2.43-.81,1.18-2.22,1.86-3.63,2.09-1.42.23-2.87.08-4.29-.09-.55-.07-1.12-.14-1.68-.24Z"/>
          <path class="cls-28" d="M281.6,66.15c-.34.12-.69.25-.94.51-.6.62-.36,1.64-.09,2.46,1.37,1.22,3.4,1.35,5.2,1,1.8-.35,3.5-1.1,5.3-1.43,2.2-.4,9.87-.8,4.68-3.26-4.13-1.96-10.11-.67-14.15.73Z"/>
          <path class="cls-23" d="M286.36,72.66c-.68.23-1.45.57-1.62,1.26-.14.59.25,1.21.77,1.52.52.31,1.15.37,1.76.42,2.45.17,17.03-.14,15.45-4.37-1.37-3.69-13.79.32-16.36,1.17Z"/>
          <path class="cls-30" d="M301.31,76.13c-2.9.74-5.87,1.51-8.28,3.28-1.02.76-2,2.04-1.46,3.2.61,1.31,2.49,1.19,3.89.82,4.43-1.16,8.78-2.64,13-4.43,2.22-.94,1.81-3.22-.39-4.06-1.87-.72-4.92.73-6.77,1.19Z"/>
          <path class="cls-17" d="M300.24,84.33c-1.57.79-3.18,1.84-3.81,3.48,1.3.87,3.02.64,4.55.33,2.16-.45,15.94-3.23,13.72-6.53-1.99-2.96-12.13,1.55-14.46,2.73Z"/>
          <path class="cls-34" d="M302.59,91.54c1.18.8,2.72.72,4.13.57,3.52-.39,7.09-1.08,10.46-2.2,2.24-.75,3.98-1.24,1.55-2.78-1.98-1.25-5.39-.32-7.39.25-.94.27-8.69,4.2-8.74,4.17Z"/>
          <path class="cls-18" d="M311.24,93.74c-1.08.25-2.18.51-3.14,1.07s-1.78,1.46-1.97,2.55c2.18.28,4.4-.01,6.58-.31,2.8-.38,5.6-.75,8.4-1.13,3.08-.41,3.57-3.46.51-4.26-2.84-.74-7.62,1.43-10.39,2.08Z"/>
        </g>
        <path class="cls-5" d="M257.25,47.49c-4.25-.57-4.88,6.21-.59,6.65,33.16,3.38,63.55,26.52,75.5,57.69.52-.58,1.14-1.07,1.88-1.47-11.74-33.37-41.31-58.13-76.79-62.87Z"/>
      </g>
    </g>
    <g>
      <path class="cls-10" d="M277.17,313.76c-6.77.87-13.43-1.8-19.69-4.5-10.98-4.75-21.88-9.83-31.77-16.56-9.88-6.74-18.77-15.23-24.61-25.67-2.85-5.1-5-10.89-4.31-16.69.67-5.61,3.95-10.65,8.09-14.49,4.14-3.84,9.13-6.64,14.08-9.36,4.83-2.65,9.68-5.28,14.56-7.83,10.13-5.31,20.4-10.34,30.91-14.84,4.69-2.01,9.45-3.93,13.88-6.46,4.04-2.31,7.78-5.11,11.51-7.9,5.1-3.82,9.62-7.78,14.13-12.23,3.46-3.42,10.24-6.9,14.05-1.89.14.18.27.37.38.56,1.08,1.8,1.21,4.07,1.27,6.2,1,35.18-4.79,70.55-16.98,103.57-2.31,6.25-4.89,12.51-8.99,17.77-4.1,5.26-9.92,9.47-16.53,10.31Z"/>
      <path class="cls-8" d="M260.08,230.77c18.99-13.98,39.29-26.31,59.67-37.96-.01,1.37-.04,2.74-.07,4.11-19.68,11.29-39.24,23.24-57.53,36.7-2.59,1.91-5.13,3.83-7.61,5.75,1.29,21.76-1.57,43.96-8.14,64.89-1.07-.51-2.13-1.02-3.19-1.55,6.09-19.59,8.87-40.31,7.96-60.7-15.57,12.37-28.81,25.11-40.06,38.38-.82-.86-1.63-1.73-2.41-2.63,13.94-16.38,30.9-31.93,51.37-47Z"/>
      <path class="cls-3" d="M317.46,225.13c-.21,1.67-.4,3.34-.64,5.01-9.73,9.08-17.77,21.12-23.11,35.17-5.76,15.15-8.13,31.25-9.09,45.98-1.1.59-2.24,1.09-3.41,1.49.9-15.45,3.28-32.54,9.41-48.67,6.04-15.89,15.44-29.31,26.85-38.98Z"/>
      <g>
        <path class="cls-22" d="M260.08,230.77c18.99-13.98,39.29-26.31,59.67-37.96-.01,1.37-.04,2.74-.07,4.11-19.68,11.29-39.24,23.24-57.53,36.7-2.59,1.91-5.13,3.83-7.61,5.75,1.29,21.76-1.57,43.96-8.14,64.89-1.07-.51-2.13-1.02-3.19-1.55,6.09-19.59,8.87-40.31,7.96-60.7-15.57,12.37-28.81,25.11-40.06,38.38-.82-.86-1.63-1.73-2.41-2.63,13.94-16.38,30.9-31.93,51.37-47Z"/>
        <path class="cls-13" d="M317.46,225.13c-.21,1.67-.4,3.34-.64,5.01-9.73,9.08-17.77,21.12-23.11,35.17-5.76,15.15-8.13,31.25-9.09,45.98-1.1.59-2.24,1.09-3.41,1.49.9-15.45,3.28-32.54,9.41-48.67,6.04-15.89,15.44-29.31,26.85-38.98Z"/>
      </g>
      <path class="cls-35" d="M156.18,235.28c-7.21-6.5-10.51-16.17-13.39-25.43-5.05-16.25-9.68-32.73-11.57-49.64-1.89-16.91-.96-34.38,4.88-50.36,2.86-7.81,7.12-15.49,14.02-20.12,6.68-4.48,15.16-5.61,23.14-4.7,7.99.91,15.63,3.69,23.15,6.52,7.34,2.75,14.67,5.56,21.95,8.46,15.12,6.02,30.07,12.44,44.68,19.6,6.52,3.2,13,6.56,19.84,9,6.24,2.22,12.74,3.66,19.21,5.1,8.84,1.96,17.32,3.17,26.29,3.91,6.9.57,16.93,4.66,15.07,13.42-.07.32-.15.63-.26.93-.94,2.84-3.27,5.08-5.51,7.12-37.05,33.7-80.59,60.23-127.53,77.7-8.89,3.31-18.04,6.32-27.51,6.77-9.47.45-19.42-1.93-26.46-8.28Z"/>
      <g>
        <path class="cls-31" d="M216.65,122.66c-28.24-8.46-54.66-13.18-79.93-14.42.56-1.43,1.16-2.85,1.83-4.24,29.97,1.64,61.52,8.11,95.71,19.74,33.22,11.3,65.37,26.21,96.62,41.38-1.2,1.04-2.41,2.05-3.62,3.07-30.6-14.82-62.03-29.34-94.42-40.36-3.75-1.28-7.47-2.48-11.15-3.64-26.03,20.52-57.18,35.12-89.64,42.34-.22-1.42-.39-2.86-.57-4.29,30.71-6.89,60.23-20.52,85.17-39.6Z"/>
        <path class="cls-19" d="M214.36,165.78c26.82-3.55,64.75-3.75,99.91,12.98-1.21.94-2.43,1.88-3.66,2.81-33.75-15.43-69.97-15.14-95.75-11.73-1.42.19-2.84.42-4.26.63l.27.21c-17.59,21.9-37.7,41.45-59.93,58.41-.75-1.14-1.44-2.32-2.08-3.54,20.71-15.85,39.55-33.99,56.18-54.19-23.43,4.06-46.36,11.34-67.82,19.35-.35-1.33-.7-2.66-1.03-4,24.57-9.17,51.11-17.36,78.18-20.94Z"/>
        <path class="cls-15" d="M291.38,195.19c-1.79,1.2-3.58,2.41-5.39,3.58-17.53-1.23-36.5,2.38-54.72,10.72-18.96,8.68-35.6,21.49-49.55,34.12-1.94.05-3.88,0-5.82-.19,14.79-13.75,32.83-28.09,53.69-37.64,20.61-9.44,42.2-13.01,61.79-10.59Z"/>
      </g>
    </g>
    <path class="cls-12" d="M388.42,138.38c-.71-4.14-3.43-7.7-6.66-10.37-.53-.44-1.22-.89-2-1.34,1.67-3.78-1.71-7.83-6-6.81-.38-.56-.84-1.07-1.32-1.54-7.26-7.3-17.25-11.98-27.53-12.26h0c-10.28.28-20.27,4.96-27.53,12.26-.48.48-.94.99-1.32,1.54-4.29-1.01-7.67,3.03-6,6.81-.79.45-1.47.9-2,1.34-3.23,2.67-5.95,6.24-6.66,10.37-.51,2.98.04,6.04.72,8.99,4.5,19.74,14.38,38.11,17.23,58.16,1.72,12.08.81,24.28.36,36.41-.22,5.95.87,21.27,2.1,34.66.56,6.1,1.15,11.81,1.65,16.04.27,2.29.52,4.15.72,5.41.07.4.14.8.21,1.2h0c.94,5.44,2.25,10.81,3.92,16.08.69,2.16,1.43,4.29,2.23,6.4.47,1.23.95,2.45,1.46,3.67,1.01,2.42,10.74,17.9,12.91,22.55h0s0,0,0,0h0s0,0,0,0c2.16-4.65,11.9-20.13,12.91-22.55.51-1.21.99-2.44,1.46-3.67.81-2.11,1.55-4.25,2.23-6.4,1.67-5.26,2.99-10.64,3.92-16.07h0c.07-.41.14-.8.21-1.2.2-1.26.45-3.12.72-5.41.51-4.23,1.09-9.94,1.65-16.04,1.23-13.39,2.32-28.7,2.1-34.66-.45-12.13-1.36-24.34.36-36.41,2.85-20.05,12.73-38.42,17.23-58.16.67-2.95,1.23-6.01.72-8.99Z"/>
  </g>
  <path class="cls-9" d="M309.05,169.11h16l20,65.96,20.18-65.96h15.99l14.47,94.57h-15.88l-9.25-59.73-18.33,59.73h-14.47l-18.17-59.73-9.47,59.73h-16.01l14.94-94.57Z"/>
</svg>