<?xml version="1.0" encoding="UTF-8"?>
<svg id="_Ñëîé_1" data-name="Ñëîé 1" xmlns="http://www.w3.org/2000/svg" xmlns:xlink="http://www.w3.org/1999/xlink" viewBox="0 0 689.81 395.39">
  <defs>
    <style>
      .cls-1 {
        fill: url(#linear-gradient-15);
      }

      .cls-2 {
        fill: url(#linear-gradient-13);
      }

      .cls-3 {
        fill: url(#linear-gradient-28);
      }

      .cls-4 {
        fill: url(#linear-gradient-2);
      }

      .cls-5 {
        fill: url(#linear-gradient-25);
      }

      .cls-6 {
        fill: url(#linear-gradient-10);
      }

      .cls-7 {
        fill: url(#linear-gradient-12);
      }

      .cls-8 {
        fill: url(#linear-gradient-27);
      }

      .cls-9 {
        fill: #fff;
      }

      .cls-10 {
        fill: url(#linear-gradient-26);
      }

      .cls-11 {
        fill: url(#linear-gradient-4);
      }

      .cls-12 {
        fill: url(#linear-gradient-35);
      }

      .cls-13 {
        fill: url(#linear-gradient-30);
      }

      .cls-14 {
        fill: url(#linear-gradient-3);
      }

      .cls-15 {
        fill: url(#linear-gradient-34);
      }

      .cls-16 {
        fill: url(#linear-gradient-5);
      }

      .cls-17 {
        fill: url(#linear-gradient-22);
      }

      .cls-18 {
        fill: url(#linear-gradient-24);
      }

      .cls-19 {
        fill: url(#linear-gradient-33);
      }

      .cls-20 {
        fill: url(#linear-gradient-8);
      }

      .cls-21 {
        fill: url(#linear-gradient-14);
      }

      .cls-22 {
        fill: url(#linear-gradient-29);
      }

      .cls-23 {
        fill: url(#linear-gradient-20);
      }

      .cls-24 {
        fill: url(#linear-gradient-17);
      }

      .cls-25 {
        fill: url(#linear-gradient-7);
      }

      .cls-26 {
        fill: url(#linear-gradient-9);
      }

      .cls-27 {
        fill: url(#linear-gradient-11);
      }

      .cls-28 {
        fill: url(#linear-gradient-19);
      }

      .cls-29 {
        fill: url(#linear-gradient-6);
      }

      .cls-30 {
        fill: url(#linear-gradient-21);
      }

      .cls-31 {
        fill: url(#linear-gradient-32);
      }

      .cls-32 {
        fill: url(#linear-gradient-16);
      }

      .cls-33 {
        fill: url(#linear-gradient);
      }

      .cls-34 {
        fill: url(#linear-gradient-23);
      }

      .cls-35 {
        fill: url(#linear-gradient-31);
      }

      .cls-36 {
        fill: url(#linear-gradient-18);
      }
    </style>
    <linearGradient id="linear-gradient" x1="6038.59" y1="6826.37" x2="5945.23" y2="6766.57" gradientTransform="translate(-7593.63 4639.47) rotate(-77.64)" gradientUnits="userSpaceOnUse">
      <stop offset="0" stop-color="#db2777"/>
      <stop offset=".51" stop-color="#fe5134"/>
      <stop offset="1" stop-color="#fda547"/>
    </linearGradient>
    <linearGradient id="linear-gradient-2" x1="6035.58" y1="6831.05" x2="5942.22" y2="6771.25" xlink:href="#linear-gradient"/>
    <linearGradient id="linear-gradient-3" x1="6036.17" y1="6830.13" x2="5942.81" y2="6770.33" xlink:href="#linear-gradient"/>
    <linearGradient id="linear-gradient-4" x1="8725.77" y1="-4210.2" x2="8802.61" y2="-4320.5" gradientTransform="translate(-8167.23 -4504.78) rotate(55.14)" gradientUnits="userSpaceOnUse">
      <stop offset=".27" stop-color="#db2777"/>
      <stop offset=".75" stop-color="#fe5134"/>
    </linearGradient>
    <linearGradient id="linear-gradient-5" x1="9518.79" y1="-3540.52" x2="9546.56" y2="-3567.89" gradientTransform="translate(-8979.04 -3888.91) rotate(44.57)" xlink:href="#linear-gradient-4"/>
    <linearGradient id="linear-gradient-6" x1="490.7" y1="5800.89" x2="663.03" y2="5821.99" gradientTransform="translate(-3906.05 4127.09) rotate(-126.98)" gradientUnits="userSpaceOnUse">
      <stop offset="0" stop-color="#18949c"/>
      <stop offset=".53" stop-color="#2c8f78"/>
      <stop offset="1" stop-color="#408b57"/>
    </linearGradient>
    <linearGradient id="linear-gradient-7" x1="11061.26" y1="136.1" x2="11260.65" y2="136.1" gradientTransform="translate(-10786.36)" gradientUnits="userSpaceOnUse">
      <stop offset="0" stop-color="#408b57"/>
      <stop offset="1" stop-color="#064e3b"/>
    </linearGradient>
    <linearGradient id="linear-gradient-8" x1="11077.87" y1="196.47" x2="11255.95" y2="196.47" xlink:href="#linear-gradient-7"/>
    <linearGradient id="linear-gradient-9" x1="11100.76" y1="219.04" x2="11216.24" y2="219.04" xlink:href="#linear-gradient-7"/>
    <linearGradient id="linear-gradient-10" x1="10051.32" y1="-319.32" x2="10050.46" y2="-313.93" gradientTransform="translate(10372.54 -377.24) rotate(175.7) scale(1 -1)" gradientUnits="userSpaceOnUse">
      <stop offset="0" stop-color="#fe4d33"/>
      <stop offset="1" stop-color="#fda547"/>
    </linearGradient>
    <linearGradient id="linear-gradient-11" x1="9915.6" y1="-924.77" x2="9915.33" y2="-916.96" gradientTransform="translate(10220.19 -976.67) rotate(168.67) scale(1 -1)" xlink:href="#linear-gradient-10"/>
    <linearGradient id="linear-gradient-12" x1="9738.02" y1="-1426.55" x2="9738.64" y2="-1417.77" gradientTransform="translate(10031.31 -1473.53) rotate(162.65) scale(1 -1)" xlink:href="#linear-gradient-10"/>
    <linearGradient id="linear-gradient-13" x1="9746.39" y1="-1424.15" x2="9747.23" y2="-1412.24" gradientTransform="translate(10031.31 -1473.53) rotate(162.65) scale(1 -1)" xlink:href="#linear-gradient-10"/>
    <linearGradient id="linear-gradient-14" x1="9752.86" y1="-1420.13" x2="9753.63" y2="-1409.18" gradientTransform="translate(10031.31 -1473.53) rotate(162.65) scale(1 -1)" xlink:href="#linear-gradient-10"/>
    <linearGradient id="linear-gradient-15" x1="9759.71" y1="-1415.83" x2="9760.3" y2="-1407.41" gradientTransform="translate(10031.31 -1473.53) rotate(162.65) scale(1 -1)" xlink:href="#linear-gradient-10"/>
    <linearGradient id="linear-gradient-16" x1="9764.84" y1="-1412.25" x2="9765.48" y2="-1403.15" gradientTransform="translate(10031.31 -1473.53) rotate(162.65) scale(1 -1)" xlink:href="#linear-gradient-10"/>
    <linearGradient id="linear-gradient-17" x1="9550.36" y1="-1964.14" x2="9533.03" y2="-1934.12" gradientTransform="translate(9820.34 -2022.17) rotate(155.99) scale(1 -1)" gradientUnits="userSpaceOnUse">
      <stop offset="0" stop-color="#581f28"/>
      <stop offset="0" stop-color="#5a1f2a"/>
      <stop offset=".82" stop-color="#b74f17"/>
      <stop offset=".95" stop-color="#c75815"/>
    </linearGradient>
    <linearGradient id="linear-gradient-18" x1="109.28" y1="428.76" x2="108.42" y2="434.15" gradientTransform="translate(119.34 -377.24) rotate(4.3)" xlink:href="#linear-gradient-10"/>
    <linearGradient id="linear-gradient-19" x1="139.6" y1="1033.17" x2="139.32" y2="1040.97" gradientTransform="translate(271.69 -976.67) rotate(11.33)" xlink:href="#linear-gradient-10"/>
    <linearGradient id="linear-gradient-20" x1="221.49" y1="1546.56" x2="222.1" y2="1555.34" gradientTransform="translate(460.57 -1473.53) rotate(17.35)" xlink:href="#linear-gradient-10"/>
    <linearGradient id="linear-gradient-21" x1="229.86" y1="1548.96" x2="230.7" y2="1560.88" gradientTransform="translate(460.57 -1473.53) rotate(17.35)" xlink:href="#linear-gradient-10"/>
    <linearGradient id="linear-gradient-22" x1="236.33" y1="1552.98" x2="237.1" y2="1563.93" gradientTransform="translate(460.57 -1473.53) rotate(17.35)" xlink:href="#linear-gradient-10"/>
    <linearGradient id="linear-gradient-23" x1="243.18" y1="1557.28" x2="243.77" y2="1565.7" gradientTransform="translate(460.57 -1473.53) rotate(17.35)" xlink:href="#linear-gradient-10"/>
    <linearGradient id="linear-gradient-24" x1="248.31" y1="1560.86" x2="248.95" y2="1569.96" gradientTransform="translate(460.57 -1473.53) rotate(17.35)" xlink:href="#linear-gradient-10"/>
    <linearGradient id="linear-gradient-25" x1="442.55" y1="2091.92" x2="425.22" y2="2121.94" gradientTransform="translate(671.54 -2022.17) rotate(24.01)" xlink:href="#linear-gradient-17"/>
    <linearGradient id="linear-gradient-26" x1="5912.92" y1="6252.88" x2="5819.56" y2="6193.08" gradientTransform="translate(7528.27 4639.47) rotate(-102.36) scale(1 -1)" xlink:href="#linear-gradient"/>
    <linearGradient id="linear-gradient-27" x1="5909.91" y1="6257.56" x2="5816.55" y2="6197.76" gradientTransform="translate(7528.27 4639.47) rotate(-102.36) scale(1 -1)" xlink:href="#linear-gradient"/>
    <linearGradient id="linear-gradient-28" x1="5910.5" y1="6256.64" x2="5817.14" y2="6196.84" gradientTransform="translate(7528.27 4639.47) rotate(-102.36) scale(1 -1)" xlink:href="#linear-gradient"/>
    <linearGradient id="linear-gradient-29" x1="8390.19" y1="-3728.46" x2="8467.03" y2="-3838.76" gradientTransform="translate(8101.87 -4504.78) rotate(124.86) scale(1 -1)" xlink:href="#linear-gradient-4"/>
    <linearGradient id="linear-gradient-30" x1="9100.54" y1="-3128.51" x2="9128.32" y2="-3155.87" gradientTransform="translate(8913.68 -3888.91) rotate(135.43) scale(1 -1)" xlink:href="#linear-gradient-4"/>
    <linearGradient id="linear-gradient-31" x1="843.86" y1="5331.89" x2="1016.19" y2="5352.98" gradientTransform="translate(3840.69 4127.09) rotate(-53.02) scale(1 -1)" xlink:href="#linear-gradient-6"/>
    <linearGradient id="linear-gradient-32" x1="10474.16" y1="136.1" x2="10673.55" y2="136.1" gradientTransform="translate(10721) rotate(-180) scale(1 -1)" xlink:href="#linear-gradient-7"/>
    <linearGradient id="linear-gradient-33" x1="10490.77" y1="196.47" x2="10668.85" y2="196.47" gradientTransform="translate(10721) rotate(-180) scale(1 -1)" xlink:href="#linear-gradient-7"/>
    <linearGradient id="linear-gradient-34" x1="10513.66" y1="219.04" x2="10629.14" y2="219.04" gradientTransform="translate(10721) rotate(-180) scale(1 -1)" xlink:href="#linear-gradient-7"/>
    <linearGradient id="linear-gradient-35" x1="260.87" y1="106.05" x2="260.87" y2="347.94" gradientUnits="userSpaceOnUse">
      <stop offset=".33" stop-color="#5a1f2a"/>
      <stop offset=".61" stop-color="#93371e"/>
      <stop offset="1" stop-color="#c75815"/>
    </linearGradient>
  </defs>
  <g>
    <g>
      <path class="cls-33" d="M328.61,313.76c6.77.87,13.43-1.8,19.69-4.5,10.98-4.75,21.88-9.83,31.77-16.56,9.88-6.74,18.77-15.23,24.61-25.67,2.85-5.1,5-10.89,4.31-16.69-.67-5.61-3.95-10.65-8.09-14.49-4.14-3.84-9.13-6.64-14.08-9.36-4.83-2.65-9.68-5.28-14.56-7.83-10.13-5.31-20.4-10.34-30.91-14.84-4.69-2.01-9.45-3.93-13.88-6.46-4.04-2.31-7.78-5.11-11.51-7.9-5.1-3.82-9.62-7.78-14.13-12.23-3.46-3.42-10.24-6.9-14.05-1.89-.14.18-.27.37-.38.56-1.08,1.8-1.21,4.07-1.27,6.2-1,35.18,4.79,70.55,16.98,103.57,2.31,6.25,4.89,12.51,8.99,17.77,4.1,5.26,9.92,9.47,16.53,10.31Z"/>
      <path class="cls-4" d="M345.69,230.77c-18.99-13.98-39.29-26.31-59.67-37.96.01,1.37.04,2.74.07,4.11,19.68,11.29,39.24,23.24,57.53,36.7,2.59,1.91,5.13,3.83,7.61,5.75-1.29,21.76,1.57,43.96,8.14,64.89,1.07-.51,2.13-1.02,3.19-1.55-6.09-19.59-8.87-40.31-7.96-60.7,15.57,12.37,28.81,25.11,40.06,38.38.82-.86,1.63-1.73,2.41-2.63-13.94-16.38-30.9-31.93-51.37-47Z"/>
      <path class="cls-14" d="M288.31,225.13c.21,1.67.4,3.34.64,5.01,9.73,9.08,17.77,21.12,23.11,35.17,5.76,15.15,8.13,31.25,9.09,45.98,1.1.59,2.24,1.09,3.41,1.49-.9-15.45-3.28-32.54-9.41-48.67-6.04-15.89-15.44-29.31-26.85-38.98Z"/>
      <g>
        <path class="cls-11" d="M345.69,230.77c-18.99-13.98-39.29-26.31-59.67-37.96.01,1.37.04,2.74.07,4.11,19.68,11.29,39.24,23.24,57.53,36.7,2.59,1.91,5.13,3.83,7.61,5.75-1.29,21.76,1.57,43.96,8.14,64.89,1.07-.51,2.13-1.02,3.19-1.55-6.09-19.59-8.87-40.31-7.96-60.7,15.57,12.37,28.81,25.11,40.06,38.38.82-.86,1.63-1.73,2.41-2.63-13.94-16.38-30.9-31.93-51.37-47Z"/>
        <path class="cls-16" d="M288.31,225.13c.21,1.67.4,3.34.64,5.01,9.73,9.08,17.77,21.12,23.11,35.17,5.76,15.15,8.13,31.25,9.09,45.98,1.1.59,2.24,1.09,3.41,1.49-.9-15.45-3.28-32.54-9.41-48.67-6.04-15.89-15.44-29.31-26.85-38.98Z"/>
      </g>
      <path class="cls-29" d="M449.59,235.28c7.21-6.5,10.51-16.17,13.39-25.43,5.05-16.25,9.68-32.73,11.57-49.64,1.89-16.91.96-34.38-4.88-50.36-2.86-7.81-7.12-15.49-14.02-20.12-6.68-4.48-15.16-5.61-23.14-4.7-7.99.91-15.63,3.69-23.15,6.52-7.34,2.75-14.67,5.56-21.95,8.46-15.12,6.02-30.07,12.44-44.68,19.6-6.52,3.2-13,6.56-19.84,9-6.24,2.22-12.74,3.66-19.21,5.1-8.84,1.96-17.32,3.17-26.29,3.91-6.9.57-16.93,4.66-15.07,13.42.07.32.15.63.26.93.94,2.84,3.27,5.08,5.51,7.12,37.05,33.7,80.59,60.23,127.53,77.7,8.89,3.31,18.04,6.32,27.51,6.77,9.47.45,19.42-1.93,26.46-8.28Z"/>
      <g>
        <path class="cls-25" d="M389.12,122.66c28.24-8.46,54.66-13.18,79.93-14.42-.56-1.43-1.16-2.85-1.83-4.24-29.97,1.64-61.52,8.11-95.71,19.74-33.22,11.3-65.37,26.21-96.62,41.38,1.2,1.04,2.41,2.05,3.62,3.07,30.6-14.82,62.03-29.34,94.42-40.36,3.75-1.28,7.47-2.48,11.15-3.64,26.03,20.52,57.18,35.12,89.64,42.34.22-1.42.39-2.86.57-4.29-30.71-6.89-60.23-20.52-85.17-39.6Z"/>
        <path class="cls-20" d="M391.41,165.78c-26.82-3.55-64.75-3.75-99.91,12.98,1.21.94,2.43,1.88,3.66,2.81,33.75-15.43,69.97-15.14,95.75-11.73,1.42.19,2.84.42,4.26.63l-.27.21c17.59,21.9,37.7,41.45,59.93,58.41.75-1.14,1.44-2.32,2.08-3.54-20.71-15.85-39.55-33.99-56.18-54.19,23.43,4.06,46.36,11.34,67.82,19.35.35-1.33.7-2.66,1.03-4-24.57-9.17-51.11-17.36-78.18-20.94Z"/>
        <path class="cls-26" d="M314.4,195.19c1.79,1.2,3.58,2.41,5.39,3.58,17.53-1.23,36.5,2.38,54.72,10.72,18.96,8.68,35.6,21.49,49.55,34.12,1.94.05,3.88,0,5.82-.19-14.79-13.75-32.83-28.09-53.69-37.64-20.61-9.44-42.2-13.01-61.79-10.59Z"/>
      </g>
    </g>
    <g>
      <g>
        <g>
          <path class="cls-6" d="M329.21,63.25c1.41-.26,2.77-.71,3.78-1.7-.03-1.16-1.41-1.73-2.55-1.95-2.34-.45-4.74-.63-7.13-.54-1.41.48-2.7,1.33-3.71,2.43.81,1.18,2.22,1.86,3.63,2.09s2.87.08,4.29-.09c.55-.07,1.12-.14,1.68-.24Z"/>
          <path class="cls-27" d="M324.18,66.15c.34.12.69.25.94.51.6.62.36,1.64.09,2.46-1.37,1.22-3.4,1.35-5.2,1-1.8-.35-3.5-1.1-5.3-1.43-2.2-.4-9.87-.8-4.68-3.26,4.13-1.96,10.11-.67,14.15.73Z"/>
          <path class="cls-7" d="M319.42,72.66c.68.23,1.45.57,1.62,1.26.14.59-.25,1.21-.77,1.52-.52.31-1.15.37-1.76.42-2.45.17-17.03-.14-15.45-4.37,1.37-3.69,13.79.32,16.36,1.17Z"/>
          <path class="cls-2" d="M304.46,76.13c2.9.74,5.87,1.51,8.28,3.28,1.02.76,2,2.04,1.46,3.2-.61,1.31-2.49,1.19-3.89.82-4.43-1.16-8.78-2.64-13-4.43-2.22-.94-1.81-3.22.39-4.06,1.87-.72,4.92.73,6.77,1.19Z"/>
          <path class="cls-21" d="M305.53,84.33c1.57.79,3.18,1.84,3.81,3.48-1.3.87-3.02.64-4.55.33-2.16-.45-15.94-3.23-13.72-6.53,1.99-2.96,12.13,1.55,14.46,2.73Z"/>
          <path class="cls-1" d="M303.18,91.54c-1.18.8-2.72.72-4.13.57-3.52-.39-7.09-1.08-10.46-2.2-2.24-.75-3.98-1.24-1.55-2.78,1.98-1.25,5.39-.32,7.39.25.94.27,8.69,4.2,8.74,4.17Z"/>
          <path class="cls-32" d="M294.53,93.74c1.08.25,2.18.51,3.14,1.07s1.78,1.46,1.97,2.55c-2.18.28-4.4-.01-6.58-.31-2.8-.38-5.6-.75-8.4-1.13-3.08-.41-3.57-3.46-.51-4.26,2.84-.74,7.62,1.43,10.39,2.08Z"/>
        </g>
        <path class="cls-24" d="M348.52,47.49c4.25-.57,4.88,6.21.59,6.65-33.16,3.38-63.55,26.52-75.5,57.69-.52-.58-1.14-1.07-1.88-1.47,11.74-33.37,41.31-58.13,76.79-62.87Z"/>
      </g>
      <g>
        <g>
          <path class="cls-36" d="M192.53,63.25c-1.41-.26-2.77-.71-3.78-1.7.03-1.16,1.41-1.73,2.55-1.95,2.34-.45,4.74-.63,7.13-.54,1.41.48,2.7,1.33,3.71,2.43-.81,1.18-2.22,1.86-3.63,2.09-1.42.23-2.87.08-4.29-.09-.55-.07-1.12-.14-1.68-.24Z"/>
          <path class="cls-28" d="M197.56,66.15c-.34.12-.69.25-.94.51-.6.62-.36,1.64-.09,2.46,1.37,1.22,3.4,1.35,5.2,1,1.8-.35,3.5-1.1,5.3-1.43,2.2-.4,9.87-.8,4.68-3.26-4.13-1.96-10.11-.67-14.15.73Z"/>
          <path class="cls-23" d="M202.32,72.66c-.68.23-1.45.57-1.62,1.26-.14.59.25,1.21.77,1.52.52.31,1.15.37,1.76.42,2.45.17,17.03-.14,15.45-4.37-1.37-3.69-13.79.32-16.36,1.17Z"/>
          <path class="cls-30" d="M217.27,76.13c-2.9.74-5.87,1.51-8.28,3.28-1.02.76-2,2.04-1.46,3.2.61,1.31,2.49,1.19,3.89.82,4.43-1.16,8.78-2.64,13-4.43,2.22-.94,1.81-3.22-.39-4.06-1.87-.72-4.92.73-6.77,1.19Z"/>
          <path class="cls-17" d="M216.21,84.33c-1.57.79-3.18,1.84-3.81,3.48,1.3.87,3.02.64,4.55.33,2.16-.45,15.94-3.23,13.72-6.53-1.99-2.96-12.13,1.55-14.46,2.73Z"/>
          <path class="cls-34" d="M218.56,91.54c1.18.8,2.72.72,4.13.57,3.52-.39,7.09-1.08,10.46-2.2,2.24-.75,3.98-1.24,1.55-2.78-1.98-1.25-5.39-.32-7.39.25-.94.27-8.69,4.2-8.74,4.17Z"/>
          <path class="cls-18" d="M227.21,93.74c-1.08.25-2.18.51-3.14,1.07s-1.78,1.46-1.97,2.55c2.18.28,4.4-.01,6.58-.31,2.8-.38,5.6-.75,8.4-1.13,3.08-.41,3.57-3.46.51-4.26-2.84-.74-7.62,1.43-10.39,2.08Z"/>
        </g>
        <path class="cls-5" d="M173.21,47.49c-4.25-.57-4.88,6.21-.59,6.65,33.16,3.38,63.55,26.52,75.5,57.69.52-.58,1.14-1.07,1.88-1.47-11.74-33.37-41.31-58.13-76.79-62.87Z"/>
      </g>
    </g>
    <g>
      <path class="cls-10" d="M193.13,313.76c-6.77.87-13.43-1.8-19.69-4.5-10.98-4.75-21.88-9.83-31.77-16.56-9.88-6.74-18.77-15.23-24.61-25.67-2.85-5.1-5-10.89-4.31-16.69.67-5.61,3.95-10.65,8.09-14.49,4.14-3.84,9.13-6.64,14.08-9.36,4.83-2.65,9.68-5.28,14.56-7.83,10.13-5.31,20.4-10.34,30.91-14.84,4.69-2.01,9.45-3.93,13.88-6.46,4.04-2.31,7.78-5.11,11.51-7.9,5.1-3.82,9.62-7.78,14.13-12.23,3.46-3.42,10.24-6.9,14.05-1.89.14.18.27.37.38.56,1.08,1.8,1.21,4.07,1.27,6.2,1,35.18-4.79,70.55-16.98,103.57-2.31,6.25-4.89,12.51-8.99,17.77-4.1,5.26-9.92,9.47-16.53,10.31Z"/>
      <path class="cls-8" d="M176.05,230.77c18.99-13.98,39.29-26.31,59.67-37.96-.01,1.37-.04,2.74-.07,4.11-19.68,11.29-39.24,23.24-57.53,36.7-2.59,1.91-5.13,3.83-7.61,5.75,1.29,21.76-1.57,43.96-8.14,64.89-1.07-.51-2.13-1.02-3.19-1.55,6.09-19.59,8.87-40.31,7.96-60.7-15.57,12.37-28.81,25.11-40.06,38.38-.82-.86-1.63-1.73-2.41-2.63,13.94-16.38,30.9-31.93,51.37-47Z"/>
      <path class="cls-3" d="M233.43,225.13c-.21,1.67-.4,3.34-.64,5.01-9.73,9.08-17.77,21.12-23.11,35.17-5.76,15.15-8.13,31.25-9.09,45.98-1.1.59-2.24,1.09-3.41,1.49.9-15.45,3.28-32.54,9.41-48.67,6.04-15.89,15.44-29.31,26.85-38.98Z"/>
      <g>
        <path class="cls-22" d="M176.05,230.77c18.99-13.98,39.29-26.31,59.67-37.96-.01,1.37-.04,2.74-.07,4.11-19.68,11.29-39.24,23.24-57.53,36.7-2.59,1.91-5.13,3.83-7.61,5.75,1.29,21.76-1.57,43.96-8.14,64.89-1.07-.51-2.13-1.02-3.19-1.55,6.09-19.59,8.87-40.31,7.96-60.7-15.57,12.37-28.81,25.11-40.06,38.38-.82-.86-1.63-1.73-2.41-2.63,13.94-16.38,30.9-31.93,51.37-47Z"/>
        <path class="cls-13" d="M233.43,225.13c-.21,1.67-.4,3.34-.64,5.01-9.73,9.08-17.77,21.12-23.11,35.17-5.76,15.15-8.13,31.25-9.09,45.98-1.1.59-2.24,1.09-3.41,1.49.9-15.45,3.28-32.54,9.41-48.67,6.04-15.89,15.44-29.31,26.85-38.98Z"/>
      </g>
      <path class="cls-35" d="M72.14,235.28c-7.21-6.5-10.51-16.17-13.39-25.43-5.05-16.25-9.68-32.73-11.57-49.64-1.89-16.91-.96-34.38,4.88-50.36,2.86-7.81,7.12-15.49,14.02-20.12,6.68-4.48,15.16-5.61,23.14-4.7,7.99.91,15.63,3.69,23.15,6.52,7.34,2.75,14.67,5.56,21.95,8.46,15.12,6.02,30.07,12.44,44.68,19.6,6.52,3.2,13,6.56,19.84,9,6.24,2.22,12.74,3.66,19.21,5.1,8.84,1.96,17.32,3.17,26.29,3.91,6.9.57,16.93,4.66,15.07,13.42-.07.32-.15.63-.26.93-.94,2.84-3.27,5.08-5.51,7.12-37.05,33.7-80.59,60.23-127.53,77.7-8.89,3.31-18.04,6.32-27.51,6.77-9.47.45-19.42-1.93-26.46-8.28Z"/>
      <g>
        <path class="cls-31" d="M132.61,122.66c-28.24-8.46-54.66-13.18-79.93-14.42.56-1.43,1.16-2.85,1.83-4.24,29.97,1.64,61.52,8.11,95.71,19.74,33.22,11.3,65.37,26.21,96.62,41.38-1.2,1.04-2.41,2.05-3.62,3.07-30.6-14.82-62.03-29.34-94.42-40.36-3.75-1.28-7.47-2.48-11.15-3.64-26.03,20.52-57.18,35.12-89.64,42.34-.22-1.42-.39-2.86-.57-4.29,30.71-6.89,60.23-20.52,85.17-39.6Z"/>
        <path class="cls-19" d="M130.32,165.78c26.82-3.55,64.75-3.75,99.91,12.98-1.21.94-2.43,1.88-3.66,2.81-33.75-15.43-69.97-15.14-95.75-11.73-1.42.19-2.84.42-4.26.63l.27.21c-17.59,21.9-37.7,41.45-59.93,58.41-.75-1.14-1.44-2.32-2.08-3.54,20.71-15.85,39.55-33.99,56.18-54.19-23.43,4.06-46.36,11.34-67.82,19.35-.35-1.33-.7-2.66-1.03-4,24.57-9.17,51.11-17.36,78.18-20.94Z"/>
        <path class="cls-15" d="M207.34,195.19c-1.79,1.2-3.58,2.41-5.39,3.58-17.53-1.23-36.5,2.38-54.72,10.72-18.96,8.68-35.6,21.49-49.55,34.12-1.94.05-3.88,0-5.82-.19,14.79-13.75,32.83-28.09,53.69-37.64,20.61-9.44,42.2-13.01,61.79-10.59Z"/>
      </g>
    </g>
    <path class="cls-12" d="M304.38,138.38c-.71-4.14-3.43-7.7-6.66-10.37-.53-.44-1.22-.89-2-1.34,1.67-3.78-1.71-7.83-6-6.81-.38-.56-.84-1.07-1.32-1.54-7.26-7.3-17.25-11.98-27.53-12.26h0c-10.28.28-20.27,4.96-27.53,12.26-.48.48-.94.99-1.32,1.54-4.29-1.01-7.67,3.03-6,6.81-.79.45-1.47.9-2,1.34-3.23,2.67-5.95,6.24-6.66,10.37-.51,2.98.04,6.04.72,8.99,4.5,19.74,14.38,38.11,17.23,58.16,1.72,12.08.81,24.28.36,36.41-.22,5.95.87,21.27,2.1,34.66.56,6.1,1.15,11.81,1.65,16.04.27,2.29.52,4.15.72,5.41.07.4.14.8.21,1.2h0c.94,5.44,2.25,10.81,3.92,16.08.69,2.16,1.43,4.29,2.23,6.4.47,1.23.95,2.45,1.46,3.67,1.01,2.42,10.74,17.9,12.91,22.55h0s0,0,0,0h0s0,0,0,0c2.16-4.65,11.9-20.13,12.91-22.55.51-1.21.99-2.44,1.46-3.67.81-2.11,1.55-4.25,2.23-6.4,1.67-5.26,2.99-10.64,3.92-16.07h0c.07-.41.14-.8.21-1.2.2-1.26.45-3.12.72-5.41.51-4.23,1.09-9.94,1.65-16.04,1.23-13.39,2.32-28.7,2.1-34.66-.45-12.13-1.36-24.34.36-36.41,2.85-20.05,12.73-38.42,17.23-58.16.67-2.95,1.23-6.01.72-8.99Z"/>
  </g>
  <g>
    <g>
      <path class="cls-9" d="M382.31,294.92h1.78l4.13,9.78,4.3-9.78h.31l4.33,9.78,4.21-9.78h1.8l-5.85,13.46h-.32l-4.3-9.64-4.31,9.64h-.32l-5.75-13.46Z"/>
      <path class="cls-9" d="M403.37,294.92h1.78l4.13,9.78,4.3-9.78h.31l4.33,9.78,4.21-9.78h1.8l-5.85,13.46h-.32l-4.3-9.64-4.31,9.64h-.32l-5.75-13.46Z"/>
      <path class="cls-9" d="M424.43,294.92h1.78l4.13,9.78,4.3-9.78h.31l4.33,9.78,4.21-9.78h1.8l-5.85,13.46h-.32l-4.3-9.64-4.31,9.64h-.32l-5.75-13.46Z"/>
      <path class="cls-9" d="M449.21,305.66c.42,0,.78.15,1.07.45s.45.66.45,1.09-.15.78-.45,1.08c-.3.3-.65.45-1.07.45s-.78-.15-1.08-.45c-.3-.3-.45-.66-.45-1.08s.15-.79.45-1.09.66-.45,1.08-.45Z"/>
      <path class="cls-9" d="M454.31,294.92h1.73v2.33c.6-.86,1.22-1.48,1.86-1.88.88-.53,1.8-.79,2.76-.79.65,0,1.27.13,1.86.38.58.25,1.06.6,1.44,1.02.37.42.69,1.03.97,1.82.58-1.06,1.3-1.86,2.16-2.41.86-.55,1.79-.82,2.79-.82.93,0,1.75.24,2.46.71.71.47,1.24,1.13,1.58,1.97.35.84.52,2.1.52,3.79v7.35h-1.77v-7.35c0-1.44-.1-2.44-.31-2.97-.2-.54-.55-.98-1.05-1.31-.49-.33-1.09-.49-1.78-.49-.84,0-1.6.25-2.3.74-.7.49-1.2,1.16-1.52,1.98-.32.82-.48,2.2-.48,4.13v5.27h-1.73v-6.89c0-1.63-.1-2.73-.31-3.31-.2-.58-.55-1.05-1.05-1.4-.5-.35-1.1-.52-1.8-.52-.8,0-1.55.24-2.25.72-.69.49-1.21,1.13-1.54,1.95-.34.82-.5,2.07-.5,3.75v5.7h-1.73v-13.46Z"/>
      <path class="cls-9" d="M491.51,294.92v13.46h-1.71v-2.31c-.73.88-1.54,1.55-2.45,1.99-.9.45-1.89.67-2.96.67-1.91,0-3.53-.69-4.88-2.07-1.35-1.38-2.02-3.06-2.02-5.04s.68-3.6,2.04-4.97c1.36-1.38,3-2.07,4.91-2.07,1.11,0,2.11.24,3,.71.89.47,1.68,1.18,2.36,2.12v-2.47h1.71ZM484.58,296.25c-.97,0-1.86.24-2.67.71-.82.48-1.47,1.14-1.95,2-.48.86-.72,1.76-.72,2.72s.24,1.85.73,2.72c.49.87,1.14,1.54,1.96,2.02.82.48,1.7.72,2.64.72s1.84-.24,2.69-.72c.85-.48,1.5-1.12,1.96-1.94.46-.81.68-1.73.68-2.75,0-1.56-.51-2.86-1.54-3.91-1.02-1.05-2.29-1.57-3.79-1.57Z"/>
      <path class="cls-9" d="M494.75,294.92h1.77v1.97c.53-.77,1.08-1.35,1.67-1.74.58-.38,1.19-.57,1.83-.57.48,0,.99.15,1.53.46l-.91,1.46c-.36-.16-.67-.24-.92-.24-.57,0-1.13.24-1.67.71-.54.47-.95,1.21-1.23,2.21-.21.77-.32,2.32-.32,4.65v4.55h-1.77v-13.46Z"/>
      <path class="cls-9" d="M514.63,294.92h1.73v10.73c0,1.89-.16,3.27-.49,4.15-.45,1.24-1.24,2.19-2.36,2.86-1.12.67-2.47,1-4.05,1-1.15,0-2.19-.16-3.11-.49-.92-.33-1.67-.76-2.24-1.32-.58-.55-1.11-1.35-1.6-2.41h1.88c.51.89,1.17,1.55,1.98,1.98.81.43,1.81.64,3.01.64s2.18-.22,2.99-.66c.82-.44,1.4-.99,1.74-1.66s.52-1.74.52-3.22v-.69c-.65.82-1.45,1.46-2.39,1.9-.94.44-1.94.66-2.99.66-1.24,0-2.41-.31-3.49-.92-1.09-.62-1.93-1.44-2.53-2.48-.59-1.04-.89-2.18-.89-3.43s.31-2.41.93-3.48c.62-1.07,1.47-1.93,2.57-2.55,1.09-.63,2.25-.94,3.46-.94,1,0,1.95.21,2.82.62.87.42,1.71,1.1,2.52,2.06v-2.34ZM509.52,296.25c-.98,0-1.9.24-2.74.71-.84.48-1.5,1.13-1.98,1.97-.48.84-.72,1.74-.72,2.71,0,1.48.49,2.7,1.48,3.66s2.27,1.45,3.85,1.45,2.87-.48,3.84-1.44,1.46-2.21,1.46-3.77c0-1.01-.22-1.92-.67-2.71-.45-.8-1.08-1.43-1.9-1.89-.82-.46-1.69-.69-2.63-.69Z"/>
      <path class="cls-9" d="M533.49,294.92v13.46h-1.71v-2.31c-.72.88-1.54,1.55-2.45,1.99-.9.45-1.89.67-2.96.67-1.91,0-3.53-.69-4.89-2.07-1.35-1.38-2.02-3.06-2.02-5.04s.68-3.6,2.04-4.97c1.36-1.38,3-2.07,4.91-2.07,1.1,0,2.1.24,3,.71.9.47,1.68,1.18,2.36,2.12v-2.47h1.71ZM526.57,296.25c-.96,0-1.85.24-2.67.71-.82.48-1.47,1.14-1.95,2-.49.86-.72,1.76-.72,2.72s.24,1.85.73,2.72c.49.87,1.14,1.54,1.96,2.02.82.48,1.7.72,2.64.72s1.85-.24,2.69-.72c.85-.48,1.5-1.12,1.96-1.94.46-.81.69-1.73.69-2.75,0-1.56-.51-2.86-1.54-3.91s-2.29-1.57-3.79-1.57Z"/>
      <path class="cls-9" d="M537.39,294.92h1.73v2.41c.69-.92,1.46-1.62,2.3-2.07.84-.46,1.76-.69,2.75-.69s1.9.25,2.68.77c.78.51,1.36,1.2,1.73,2.07.37.87.55,2.21.55,4.05v6.93h-1.73v-6.42c0-1.55-.06-2.59-.19-3.11-.2-.89-.58-1.56-1.15-2.01-.57-.45-1.31-.68-2.23-.68-1.05,0-1.98.35-2.82,1.04-.83.69-1.38,1.55-1.64,2.57-.17.67-.25,1.89-.25,3.66v4.94h-1.73v-13.46Z"/>
      <path class="cls-9" d="M566.26,294.92v13.46h-1.71v-2.31c-.72.88-1.54,1.55-2.45,1.99-.9.45-1.89.67-2.96.67-1.91,0-3.53-.69-4.89-2.07-1.35-1.38-2.02-3.06-2.02-5.04s.68-3.6,2.04-4.97c1.36-1.38,3-2.07,4.91-2.07,1.1,0,2.1.24,3,.71.9.47,1.68,1.18,2.36,2.12v-2.47h1.71ZM559.33,296.25c-.96,0-1.85.24-2.67.71-.82.48-1.47,1.14-1.95,2-.49.86-.72,1.76-.72,2.72s.24,1.85.73,2.72c.49.87,1.14,1.54,1.96,2.02.82.48,1.7.72,2.64.72s1.85-.24,2.69-.72c.85-.48,1.5-1.12,1.96-1.94.46-.81.69-1.73.69-2.75,0-1.56-.51-2.86-1.54-3.91-1.02-1.05-2.29-1.57-3.79-1.57Z"/>
      <path class="cls-9" d="M572.06,305.66c.42,0,.78.15,1.07.45s.45.66.45,1.09-.15.78-.45,1.08c-.3.3-.65.45-1.07.45s-.78-.15-1.08-.45c-.3-.3-.45-.66-.45-1.08s.15-.79.45-1.09.66-.45,1.08-.45Z"/>
      <path class="cls-9" d="M590.24,297.72l-1.37.85c-1.19-1.58-2.81-2.36-4.86-2.36-1.64,0-3,.53-4.08,1.58s-1.62,2.34-1.62,3.84c0,.98.25,1.91.75,2.77.5.87,1.18,1.54,2.05,2.01.87.48,1.85.72,2.93.72,1.97,0,3.59-.79,4.85-2.36l1.37.9c-.64.97-1.5,1.72-2.59,2.25-1.08.53-2.32.8-3.7.8-2.13,0-3.9-.68-5.3-2.03-1.41-1.35-2.1-3-2.1-4.94,0-1.3.33-2.51.98-3.63.66-1.12,1.56-1.99,2.71-2.62,1.14-.63,2.43-.94,3.85-.94.89,0,1.75.14,2.58.41.83.27,1.53.63,2.11,1.06.57.44,1.07.99,1.47,1.67Z"/>
      <path class="cls-9" d="M599.94,294.58c2.07,0,3.8.75,5.16,2.25,1.24,1.37,1.86,2.99,1.86,4.86s-.66,3.52-1.96,4.93c-1.31,1.41-2.99,2.11-5.05,2.11s-3.75-.7-5.06-2.11c-1.31-1.41-1.96-3.05-1.96-4.93s.62-3.48,1.86-4.85c1.36-1.51,3.09-2.26,5.17-2.26ZM599.93,296.27c-1.44,0-2.68.53-3.71,1.6-1.03,1.06-1.55,2.35-1.55,3.86,0,.97.24,1.88.71,2.72.48.84,1.11,1.49,1.92,1.95.8.46,1.68.69,2.64.69s1.84-.23,2.64-.69c.81-.46,1.44-1.11,1.92-1.95.47-.84.71-1.75.71-2.72,0-1.51-.52-2.8-1.56-3.86-1.04-1.06-2.28-1.6-3.71-1.6Z"/>
      <path class="cls-9" d="M612.06,305.66c.42,0,.78.15,1.08.45s.45.66.45,1.09-.15.78-.45,1.08c-.3.3-.66.45-1.08.45s-.78-.15-1.07-.45c-.3-.3-.45-.66-.45-1.08s.15-.79.45-1.09.65-.45,1.07-.45Z"/>
      <path class="cls-9" d="M616.95,294.92h1.73v6.29c0,1.53.08,2.59.25,3.17.25.82.72,1.48,1.42,1.96.7.48,1.53.72,2.49.72s1.79-.23,2.46-.7c.67-.47,1.14-1.08,1.4-1.84.17-.52.26-1.62.26-3.3v-6.29h1.77v6.61c0,1.86-.22,3.25-.65,4.19-.44.94-1.09,1.68-1.96,2.21-.87.53-1.96.8-3.28.8s-2.41-.27-3.28-.8c-.88-.53-1.53-1.28-1.97-2.23-.43-.96-.65-2.39-.65-4.3v-6.48Z"/>
      <path class="cls-9" d="M632.57,289.72h1.73v10.63l6.24-5.43h2.54l-7.4,6.42,7.83,7.04h-2.44l-6.78-6.06v6.06h-1.73v-18.66Z"/>
    </g>
    <g>
      <path class="cls-9" d="M357.38,212.29h12.57v50.11h-12.57v-5.3c-2.45,2.33-4.91,4.01-7.38,5.04-2.47,1.03-5.14,1.54-8.03,1.54-6.47,0-12.07-2.51-16.79-7.53-4.72-5.02-7.08-11.26-7.08-18.72s2.28-14.08,6.85-19.02c4.57-4.94,10.12-7.41,16.65-7.41,3.01,0,5.83.57,8.46,1.7,2.64,1.14,5.08,2.84,7.31,5.11v-5.53ZM344.16,222.6c-3.89,0-7.11,1.37-9.69,4.12-2.57,2.75-3.86,6.27-3.86,10.57s1.31,7.89,3.92,10.68c2.62,2.79,5.84,4.19,9.66,4.19s7.22-1.37,9.82-4.12,3.9-6.35,3.9-10.8-1.3-7.89-3.9-10.59c-2.6-2.7-5.89-4.05-9.87-4.05Z"/>
      <path class="cls-9" d="M379.71,212.29h10.78v6.31c1.17-2.49,2.72-4.38,4.65-5.66,1.93-1.29,4.05-1.93,6.36-1.93,1.63,0,3.33.43,5.11,1.29l-3.91,10.82c-1.47-.74-2.69-1.11-3.64-1.11-1.93,0-3.57,1.2-4.91,3.59-1.33,2.39-2,7.09-2,14.09l.05,2.44v20.26h-12.48v-50.11Z"/>
      <path class="cls-9" d="M449.86,212.29h12.53v42.92c0,8.47-1.7,14.71-5.11,18.7-4.58,5.4-11.47,8.11-20.68,8.11-4.91,0-9.04-.61-12.39-1.84-3.35-1.23-6.17-3.03-8.47-5.41-2.3-2.38-4.01-5.27-5.11-8.68h13.86c1.23,1.41,2.81,2.48,4.74,3.2,1.93.72,4.22,1.08,6.86,1.08,3.38,0,6.09-.52,8.15-1.57,2.06-1.04,3.51-2.39,4.35-4.05.84-1.66,1.27-4.51,1.27-8.57-2.21,2.21-4.53,3.8-6.95,4.77-2.43.97-5.17,1.45-8.24,1.45-6.72,0-12.4-2.42-17.04-7.28-4.64-4.85-6.95-10.99-6.95-18.42,0-7.95,2.46-14.34,7.37-19.16,4.45-4.36,9.76-6.54,15.94-6.54,2.89,0,5.61.53,8.18,1.59,2.56,1.06,5.13,2.8,7.71,5.23v-5.53ZM436.82,222.74c-3.96,0-7.23,1.33-9.81,3.98-2.58,2.66-3.87,6-3.87,10.02s1.32,7.6,3.96,10.27c2.64,2.67,5.96,4.01,9.95,4.01s7.12-1.3,9.65-3.91c2.53-2.61,3.8-6.03,3.8-10.27s-1.27-7.57-3.82-10.18c-2.55-2.61-5.83-3.91-9.86-3.91Z"/>
      <path class="cls-9" d="M512.08,212.29h12.57v50.11h-12.57v-5.3c-2.45,2.33-4.91,4.01-7.38,5.04-2.47,1.03-5.14,1.54-8.03,1.54-6.47,0-12.07-2.51-16.79-7.53-4.72-5.02-7.08-11.26-7.08-18.72s2.28-14.08,6.85-19.02c4.57-4.94,10.12-7.41,16.65-7.41,3.01,0,5.83.57,8.46,1.7,2.64,1.14,5.08,2.84,7.31,5.11v-5.53ZM498.86,222.6c-3.89,0-7.11,1.37-9.69,4.12-2.57,2.75-3.86,6.27-3.86,10.57s1.31,7.89,3.92,10.68c2.62,2.79,5.84,4.19,9.66,4.19s7.22-1.37,9.82-4.12c2.6-2.75,3.9-6.35,3.9-10.8s-1.3-7.89-3.9-10.59c-2.6-2.7-5.89-4.05-9.87-4.05Z"/>
      <path class="cls-9" d="M537.36,212.29h12.57v5.13c2.85-2.4,5.43-4.07,7.75-5.01,2.31-.94,4.68-1.41,7.11-1.41,4.97,0,9.18,1.73,12.65,5.2,2.91,2.95,4.37,7.31,4.37,13.08v33.11h-12.43v-21.94c0-5.98-.27-9.95-.8-11.91-.54-1.96-1.47-3.46-2.8-4.49-1.33-1.03-2.98-1.54-4.94-1.54-2.54,0-4.73.85-6.55,2.55-1.82,1.7-3.09,4.06-3.79,7.06-.37,1.56-.55,4.95-.55,10.17v20.1h-12.57v-50.11Z"/>
      <path class="cls-9" d="M630.94,212.29h12.57v50.11h-12.57v-5.3c-2.45,2.33-4.91,4.01-7.38,5.04-2.47,1.03-5.14,1.54-8.03,1.54-6.47,0-12.07-2.51-16.79-7.53-4.72-5.02-7.08-11.26-7.08-18.72s2.28-14.08,6.85-19.02c4.57-4.94,10.12-7.41,16.65-7.41,3.01,0,5.83.57,8.46,1.7,2.64,1.14,5.08,2.84,7.31,5.11v-5.53ZM617.73,222.6c-3.89,0-7.11,1.37-9.69,4.12-2.57,2.75-3.86,6.27-3.86,10.57s1.31,7.89,3.92,10.68c2.62,2.79,5.84,4.19,9.66,4.19s7.22-1.37,9.82-4.12c2.6-2.75,3.9-6.35,3.9-10.8s-1.3-7.89-3.9-10.59c-2.6-2.7-5.89-4.05-9.87-4.05Z"/>
      <path class="cls-9" d="M225.01,169.11h16l20,65.96,20.18-65.96h15.99l14.47,94.57h-15.88l-9.25-59.73-18.33,59.73h-14.47l-18.17-59.73-9.47,59.73h-16.01l14.94-94.57Z"/>
    </g>
  </g>
</svg>